<svg width="169" height="170" viewBox="0 0 169 170" fill="none" xmlns="http://www.w3.org/2000/svg">
<rect width="169" height="170" rx="40" fill="#FA8A95"/>
<g clip-path="url(#clip0_0_429)">
<path d="M62.3074 54.8219C63.7399 48.985 71.7706 45.8969 76.6999 49.0394C78.8296 47.0894 81.6124 46.0078 84.5 46.0078C87.3875 46.0078 90.1703 47.0894 92.2999 49.0394C104.367 42.8913 113.72 60.5013 100.764 66.0869C100.413 66.188 100.103 66.3962 99.8762 66.6822C99.6496 66.9683 99.5181 67.318 99.5 67.6825V77.875H69.4999V67.6825C69.4818 67.318 69.3503 66.9683 69.1237 66.6822C68.8971 66.3962 68.5868 66.188 68.2362 66.0869C66.0162 65.2937 64.1749 63.6958 63.0769 61.6096C61.9789 59.5234 61.7043 57.1009 62.3074 54.8219ZM69.4999 81.625C69.3851 82.8058 69.5174 83.9976 69.8883 85.1245C70.2592 86.2514 70.8605 87.2888 71.6542 88.1706C72.4478 89.0524 73.4163 89.7594 74.4981 90.2465C75.5798 90.7336 76.7511 90.9902 77.9374 91H91.0625C92.2488 90.9902 93.4201 90.7336 94.5018 90.2465C95.5836 89.7594 96.5521 89.0524 97.3457 88.1706C98.1393 87.2888 98.7407 86.2514 99.1116 85.1245C99.4825 83.9976 99.6147 82.8058 99.5 81.625H69.4999Z" fill="black"/>
</g>
<path d="M49.4688 118H45.5918V103.938H49.4688V110.637C50.6667 109.719 51.7832 108.7 52.8184 107.58C53.86 106.46 54.7552 105.243 55.5039 103.928H58.1504C57.4603 105.106 56.6693 106.206 55.7773 107.229C54.8854 108.251 53.9154 109.198 52.8672 110.07L58.4824 118H54.4395L50.2109 112.023C50.0872 112.108 49.9635 112.189 49.8398 112.268C49.7227 112.346 49.599 112.424 49.4688 112.502V118ZM63.2969 103.996C63.2969 104.243 63.248 104.478 63.1504 104.699C63.0592 104.921 62.9323 105.113 62.7695 105.275C62.6068 105.438 62.4147 105.568 62.1934 105.666C61.972 105.757 61.7376 105.803 61.4902 105.803C61.2428 105.803 61.0085 105.757 60.7871 105.666C60.5723 105.568 60.3835 105.438 60.2207 105.275C60.0579 105.113 59.9277 104.921 59.8301 104.699C59.7389 104.478 59.6934 104.243 59.6934 103.996C59.6934 103.749 59.7389 103.518 59.8301 103.303C59.9277 103.081 60.0579 102.889 60.2207 102.727C60.3835 102.564 60.5723 102.437 60.7871 102.346C61.0085 102.248 61.2428 102.199 61.4902 102.199C61.7376 102.199 61.972 102.248 62.1934 102.346C62.4147 102.437 62.6068 102.564 62.7695 102.727C62.9323 102.889 63.0592 103.081 63.1504 103.303C63.248 103.518 63.2969 103.749 63.2969 103.996ZM63.1504 118H59.8398V106.73H63.1504V118ZM70.1719 118H66.8613V108.029H64.8105V106.721H66.8613V102.57H70.1719V106.721H73.5898V108.029H70.1719V118ZM85.0254 109.514L83.5996 110.08C83.3717 109.364 82.9909 108.814 82.457 108.43C81.9232 108.046 81.2819 107.854 80.5332 107.854C80.1296 107.854 79.7682 107.919 79.4492 108.049C79.1367 108.173 78.86 108.345 78.6191 108.566C78.3848 108.788 78.1829 109.045 78.0137 109.338C77.8509 109.631 77.7174 109.943 77.6133 110.275C77.5091 110.607 77.4342 110.952 77.3887 111.311C77.3431 111.662 77.3203 112.004 77.3203 112.336C77.3203 112.694 77.3398 113.055 77.3789 113.42C77.418 113.785 77.4831 114.136 77.5742 114.475C77.6719 114.807 77.7988 115.119 77.9551 115.412C78.1113 115.699 78.3066 115.949 78.541 116.164C78.7819 116.379 79.0651 116.548 79.3906 116.672C79.7227 116.796 80.1035 116.857 80.5332 116.857C80.8783 116.857 81.207 116.805 81.5195 116.701C81.832 116.597 82.1185 116.451 82.3789 116.262C82.6393 116.073 82.8704 115.848 83.0723 115.588C83.2741 115.327 83.4336 115.038 83.5508 114.719L84.9863 115.246C84.7715 115.76 84.485 116.206 84.127 116.584C83.7754 116.955 83.375 117.264 82.9258 117.512C82.4766 117.753 81.9948 117.932 81.4805 118.049C80.9661 118.166 80.4453 118.225 79.918 118.225C79.0651 118.225 78.2741 118.081 77.5449 117.795C76.8158 117.502 76.1842 117.095 75.6504 116.574C75.123 116.047 74.7096 115.425 74.4102 114.709C74.1107 113.986 73.9609 113.195 73.9609 112.336C73.9609 111.47 74.1074 110.676 74.4004 109.953C74.6999 109.23 75.1133 108.609 75.6406 108.088C76.168 107.567 76.7962 107.163 77.5254 106.877C78.2546 106.59 79.0521 106.447 79.918 106.447C80.4648 106.447 80.9987 106.509 81.5195 106.633C82.0404 106.75 82.5221 106.936 82.9648 107.189C83.4141 107.437 83.8145 107.753 84.166 108.137C84.5241 108.521 84.8105 108.98 85.0254 109.514ZM98.5117 111.535C98.5117 112.297 98.4173 113.091 98.2285 113.918C98.0462 114.745 97.7891 115.555 97.457 116.35C97.125 117.144 96.7279 117.889 96.2656 118.586C95.8034 119.289 95.2956 119.895 94.7422 120.402L93.502 119.729C93.6777 119.403 93.8438 119.038 94 118.635C94.1562 118.231 94.2962 117.805 94.4199 117.355C94.5501 116.9 94.6641 116.431 94.7617 115.949C94.8659 115.467 94.9505 114.992 95.0156 114.523C95.0872 114.048 95.1393 113.589 95.1719 113.146C95.2109 112.697 95.2305 112.281 95.2305 111.896C95.2305 111.643 95.2207 111.372 95.2012 111.086C95.1816 110.793 95.1393 110.503 95.0742 110.217C95.0156 109.924 94.9342 109.644 94.8301 109.377C94.7259 109.11 94.5859 108.876 94.4102 108.674C94.2409 108.472 94.0326 108.309 93.7852 108.186C93.5443 108.062 93.2578 108 92.9258 108C92.6003 108 92.3105 108.075 92.0566 108.225C91.8027 108.368 91.5781 108.56 91.3828 108.801C91.1875 109.035 91.0182 109.305 90.875 109.611C90.7383 109.917 90.6243 110.233 90.5332 110.559C90.4486 110.878 90.3867 111.193 90.3477 111.506C90.3086 111.818 90.2891 112.098 90.2891 112.346V118H86.9785V102.57H90.2793V108.381C90.7025 107.762 91.2201 107.287 91.832 106.955C92.4505 106.617 93.1341 106.447 93.8828 106.447C94.6641 106.447 95.3444 106.574 95.9238 106.828C96.5033 107.082 96.985 107.437 97.3691 107.893C97.7533 108.342 98.0397 108.879 98.2285 109.504C98.4173 110.122 98.5117 110.799 98.5117 111.535ZM103.404 112.648C103.808 112.74 104.212 112.811 104.615 112.863C105.019 112.915 105.426 112.941 105.836 112.941C106.266 112.941 106.663 112.902 107.027 112.824C107.398 112.74 107.717 112.603 107.984 112.414C108.258 112.219 108.473 111.962 108.629 111.643C108.785 111.324 108.863 110.926 108.863 110.451C108.863 110.067 108.811 109.715 108.707 109.396C108.603 109.077 108.447 108.804 108.238 108.576C108.036 108.348 107.786 108.173 107.486 108.049C107.187 107.919 106.839 107.854 106.441 107.854C106.07 107.854 105.735 107.922 105.436 108.059C105.143 108.195 104.882 108.381 104.654 108.615C104.433 108.843 104.241 109.11 104.078 109.416C103.922 109.722 103.792 110.041 103.688 110.373C103.583 110.705 103.508 111.04 103.463 111.379C103.417 111.717 103.395 112.036 103.395 112.336C103.395 112.388 103.395 112.44 103.395 112.492C103.395 112.544 103.398 112.596 103.404 112.648ZM111.539 110.422C111.539 110.884 111.464 111.298 111.314 111.662C111.165 112.02 110.96 112.336 110.699 112.609C110.445 112.883 110.149 113.114 109.811 113.303C109.472 113.492 109.111 113.648 108.727 113.771C108.342 113.889 107.945 113.973 107.535 114.025C107.132 114.077 106.738 114.104 106.354 114.104C105.865 114.104 105.383 114.071 104.908 114.006C104.433 113.934 103.964 113.824 103.502 113.674C103.574 114.104 103.688 114.514 103.844 114.904C104 115.288 104.208 115.627 104.469 115.92C104.729 116.206 105.048 116.434 105.426 116.604C105.81 116.773 106.262 116.857 106.783 116.857C107.128 116.857 107.457 116.805 107.77 116.701C108.082 116.597 108.368 116.451 108.629 116.262C108.889 116.073 109.117 115.848 109.312 115.588C109.514 115.327 109.677 115.038 109.801 114.719L111.227 115.246C111.012 115.76 110.715 116.206 110.338 116.584C109.967 116.955 109.544 117.264 109.068 117.512C108.6 117.753 108.098 117.932 107.564 118.049C107.037 118.166 106.513 118.225 105.992 118.225C105.133 118.225 104.339 118.081 103.609 117.795C102.88 117.502 102.252 117.095 101.725 116.574C101.197 116.053 100.784 115.432 100.484 114.709C100.185 113.986 100.035 113.195 100.035 112.336C100.035 111.477 100.185 110.686 100.484 109.963C100.784 109.24 101.197 108.618 101.725 108.098C102.252 107.577 102.88 107.173 103.609 106.887C104.339 106.594 105.133 106.447 105.992 106.447C106.409 106.447 106.835 106.477 107.271 106.535C107.708 106.594 108.131 106.688 108.541 106.818C108.951 106.942 109.339 107.105 109.703 107.307C110.068 107.508 110.383 107.759 110.65 108.059C110.924 108.352 111.139 108.693 111.295 109.084C111.458 109.475 111.539 109.921 111.539 110.422ZM125.133 111.535C125.133 112.297 125.038 113.091 124.85 113.918C124.667 114.745 124.41 115.555 124.078 116.35C123.746 117.144 123.349 117.889 122.887 118.586C122.424 119.289 121.917 119.895 121.363 120.402L120.123 119.729C120.299 119.403 120.465 119.038 120.621 118.635C120.777 118.231 120.917 117.805 121.041 117.355C121.171 116.9 121.285 116.431 121.383 115.949C121.487 115.467 121.572 114.992 121.637 114.523C121.708 114.048 121.76 113.589 121.793 113.146C121.832 112.697 121.852 112.281 121.852 111.896C121.852 111.643 121.842 111.372 121.822 111.086C121.803 110.793 121.76 110.503 121.695 110.217C121.637 109.924 121.555 109.644 121.451 109.377C121.347 109.11 121.207 108.876 121.031 108.674C120.862 108.472 120.654 108.309 120.406 108.186C120.165 108.062 119.879 108 119.547 108C119.221 108 118.932 108.075 118.678 108.225C118.424 108.368 118.199 108.56 118.004 108.801C117.809 109.035 117.639 109.305 117.496 109.611C117.359 109.917 117.245 110.233 117.154 110.559C117.07 110.878 117.008 111.193 116.969 111.506C116.93 111.818 116.91 112.098 116.91 112.346V118H113.6V106.721H114.869L116.383 109.348C116.565 108.911 116.793 108.514 117.066 108.156C117.34 107.798 117.649 107.492 117.994 107.238C118.339 106.984 118.72 106.789 119.137 106.652C119.56 106.516 120.016 106.447 120.504 106.447C121.285 106.447 121.965 106.574 122.545 106.828C123.124 107.082 123.606 107.437 123.99 107.893C124.374 108.342 124.661 108.879 124.85 109.504C125.038 110.122 125.133 110.799 125.133 111.535Z" fill="black"/>
<defs>
<clipPath id="clip0_0_429">
<rect width="45" height="45" fill="white" transform="translate(62 46)"/>
</clipPath>
</defs>
</svg>
