<svg width="193" height="40" viewBox="0 0 193 40" fill="none" xmlns="http://www.w3.org/2000/svg">
<rect width="193" height="40" rx="20" fill="#3DA6B8"/>
<path d="M77.0205 25H67.9326V12.3438H71.4219V23.3916H77.0205V25ZM88.7803 19.9023C88.7803 20.4297 88.71 20.9248 88.5693 21.3877C88.4287 21.8506 88.2324 22.2783 87.9805 22.6709C87.7344 23.0635 87.4355 23.418 87.084 23.7344C86.7324 24.0449 86.3457 24.3086 85.9238 24.5254C85.5078 24.7422 85.0596 24.9092 84.5791 25.0264C84.1045 25.1436 83.6152 25.2021 83.1113 25.2021C82.6074 25.2021 82.1182 25.1436 81.6436 25.0264C81.1689 24.9092 80.7207 24.7422 80.2988 24.5254C79.8828 24.3086 79.499 24.0449 79.1475 23.7344C78.7959 23.418 78.4941 23.0635 78.2422 22.6709C77.9961 22.2783 77.8027 21.8506 77.6621 21.3877C77.5215 20.9189 77.4512 20.4238 77.4512 19.9023C77.4512 19.3809 77.5215 18.8887 77.6621 18.4258C77.8027 17.957 77.9961 17.5264 78.2422 17.1338C78.4941 16.7412 78.7959 16.3896 79.1475 16.0791C79.499 15.7627 79.8828 15.4961 80.2988 15.2793C80.7207 15.0625 81.1689 14.8955 81.6436 14.7783C82.1182 14.6611 82.6074 14.6025 83.1113 14.6025C83.6152 14.6025 84.1045 14.6611 84.5791 14.7783C85.0596 14.8955 85.5078 15.0625 85.9238 15.2793C86.3457 15.4961 86.7324 15.7627 87.084 16.0791C87.4355 16.3896 87.7344 16.7412 87.9805 17.1338C88.2324 17.5264 88.4287 17.957 88.5693 18.4258C88.71 18.8887 88.7803 19.3809 88.7803 19.9023ZM85.7568 19.9023C85.7568 19.6211 85.7393 19.3252 85.7041 19.0146C85.6748 18.6982 85.6221 18.3906 85.5459 18.0918C85.4697 17.7871 85.3643 17.4971 85.2295 17.2217C85.1006 16.9404 84.9395 16.6973 84.7461 16.4922C84.5527 16.2812 84.3213 16.1143 84.0518 15.9912C83.7822 15.8623 83.4688 15.7979 83.1113 15.7979C82.7715 15.7979 82.4697 15.8623 82.2061 15.9912C81.9424 16.1201 81.7109 16.293 81.5117 16.5098C81.3184 16.7207 81.1543 16.9668 81.0195 17.248C80.8906 17.5293 80.7852 17.8223 80.7031 18.127C80.6211 18.4258 80.5625 18.7305 80.5273 19.041C80.4922 19.3457 80.4746 19.6328 80.4746 19.9023C80.4746 20.1719 80.4922 20.4619 80.5273 20.7725C80.5625 21.0771 80.6211 21.3818 80.7031 21.6865C80.7852 21.9912 80.8906 22.2842 81.0195 22.5654C81.1543 22.8408 81.3184 23.0869 81.5117 23.3037C81.7109 23.5146 81.9424 23.6846 82.2061 23.8135C82.4697 23.9424 82.7715 24.0068 83.1113 24.0068C83.4629 24.0068 83.7734 23.9453 84.043 23.8223C84.3125 23.6934 84.5439 23.5234 84.7373 23.3125C84.9365 23.1016 85.1006 22.8584 85.2295 22.583C85.3584 22.3076 85.4609 22.0176 85.5371 21.7129C85.6191 21.4082 85.6748 21.1006 85.7041 20.79C85.7393 20.4795 85.7568 20.1836 85.7568 19.9023ZM100.883 23.7783C100.883 24.5869 100.763 25.3486 100.522 26.0635C100.282 26.7783 99.9336 27.4023 99.4766 27.9355C99.0195 28.4746 98.457 28.8994 97.7891 29.21C97.127 29.5264 96.3711 29.6846 95.5215 29.6846C95.0527 29.6846 94.5781 29.6318 94.0977 29.5264C93.623 29.4209 93.1719 29.2568 92.7441 29.0342C92.3223 28.8174 91.9414 28.5391 91.6016 28.1992C91.2676 27.8652 91.0039 27.4697 90.8105 27.0127L92.0938 26.5293C92.2051 26.8164 92.3486 27.0801 92.5244 27.3203C92.7061 27.5605 92.9141 27.7656 93.1484 27.9355C93.3828 28.1113 93.6406 28.2461 93.9219 28.3398C94.2031 28.4395 94.499 28.4893 94.8096 28.4893C95.3955 28.4893 95.8848 28.3691 96.2773 28.1289C96.6758 27.8887 96.9951 27.5752 97.2354 27.1885C97.4756 26.8018 97.6484 26.3623 97.7539 25.8701C97.8594 25.3838 97.9121 24.8887 97.9121 24.3848V23.7871C97.5605 24.2676 97.1357 24.625 96.6377 24.8594C96.1455 25.0879 95.6035 25.2021 95.0117 25.2021C94.2383 25.2021 93.5469 25.0645 92.9375 24.7891C92.3281 24.5137 91.8125 24.1387 91.3906 23.6641C90.9688 23.1836 90.6465 22.6211 90.4238 21.9766C90.2012 21.332 90.0898 20.6406 90.0898 19.9023C90.0898 19.1641 90.2012 18.4727 90.4238 17.8281C90.6465 17.1836 90.9688 16.624 91.3906 16.1494C91.8125 15.6689 92.3281 15.291 92.9375 15.0156C93.5469 14.7402 94.2383 14.6025 95.0117 14.6025C95.4043 14.6025 95.7764 14.6611 96.1279 14.7783C96.4854 14.8955 96.8105 15.0625 97.1035 15.2793C97.4023 15.4902 97.6631 15.748 97.8857 16.0527C98.1143 16.3516 98.293 16.6855 98.4219 17.0547L99.7402 14.8486H100.883V23.7783ZM97.8945 19.9023C97.8945 19.6387 97.8799 19.3604 97.8506 19.0674C97.8271 18.7744 97.7832 18.4844 97.7188 18.1973C97.6543 17.9102 97.5635 17.6377 97.4463 17.3799C97.335 17.1162 97.1885 16.8848 97.0068 16.6855C96.8311 16.4805 96.6172 16.3193 96.3652 16.2021C96.1133 16.085 95.8203 16.0264 95.4863 16.0264C95.1523 16.0264 94.8623 16.0879 94.6162 16.2109C94.3701 16.3281 94.1592 16.4893 93.9834 16.6943C93.8076 16.8936 93.6611 17.125 93.5439 17.3887C93.4326 17.6523 93.3447 17.9277 93.2803 18.2148C93.2158 18.502 93.1689 18.792 93.1396 19.085C93.1162 19.3721 93.1045 19.6445 93.1045 19.9023C93.1045 20.1602 93.1162 20.4355 93.1396 20.7285C93.1689 21.0215 93.2158 21.3115 93.2803 21.5986C93.3447 21.8857 93.4326 22.1611 93.5439 22.4248C93.6611 22.6885 93.8076 22.9229 93.9834 23.1279C94.1592 23.3271 94.3701 23.4883 94.6162 23.6113C94.8623 23.7285 95.1523 23.7871 95.4863 23.7871C95.791 23.7871 96.0605 23.7256 96.2949 23.6025C96.5352 23.4736 96.7432 23.3037 96.9189 23.0928C97.1006 22.8818 97.2529 22.6416 97.376 22.3721C97.499 22.1025 97.5986 21.8242 97.6748 21.5371C97.751 21.25 97.8066 20.9658 97.8418 20.6846C97.877 20.3975 97.8945 20.1367 97.8945 19.9023ZM112.15 25H108.661V12.3438H112.15V25ZM125.105 19.1816C125.105 19.8672 125.021 20.582 124.851 21.3262C124.687 22.0703 124.455 22.7998 124.156 23.5146C123.857 24.2295 123.5 24.9004 123.084 25.5273C122.668 26.1602 122.211 26.7051 121.713 27.1621L120.597 26.5557C120.755 26.2627 120.904 25.9346 121.045 25.5713C121.186 25.208 121.312 24.8242 121.423 24.4199C121.54 24.0098 121.643 23.5879 121.73 23.1543C121.824 22.7207 121.9 22.293 121.959 21.8711C122.023 21.4434 122.07 21.0303 122.1 20.6318C122.135 20.2275 122.152 19.8525 122.152 19.5068C122.152 19.2783 122.144 19.0352 122.126 18.7773C122.108 18.5137 122.07 18.2529 122.012 17.9951C121.959 17.7314 121.886 17.4795 121.792 17.2393C121.698 16.999 121.572 16.7881 121.414 16.6064C121.262 16.4248 121.074 16.2783 120.852 16.167C120.635 16.0557 120.377 16 120.078 16C119.785 16 119.524 16.0674 119.296 16.2021C119.067 16.3311 118.865 16.5039 118.689 16.7207C118.514 16.9316 118.361 17.1748 118.232 17.4502C118.109 17.7256 118.007 18.0098 117.925 18.3027C117.849 18.5898 117.793 18.874 117.758 19.1553C117.723 19.4365 117.705 19.6885 117.705 19.9111V25H114.726V14.8486H115.868L117.23 17.2129C117.395 16.8203 117.6 16.4629 117.846 16.1406C118.092 15.8184 118.37 15.543 118.681 15.3145C118.991 15.0859 119.334 14.9102 119.709 14.7871C120.09 14.6641 120.5 14.6025 120.939 14.6025C121.643 14.6025 122.255 14.7168 122.776 14.9453C123.298 15.1738 123.731 15.4932 124.077 15.9033C124.423 16.3076 124.681 16.791 124.851 17.3535C125.021 17.9102 125.105 18.5195 125.105 19.1816Z" fill="white"/>
</svg>
