<svg width="169" height="170" viewBox="0 0 169 170" fill="none" xmlns="http://www.w3.org/2000/svg">
<rect width="169" height="170" rx="40" fill="#F9BB6C"/>
<g clip-path="url(#clip0_0_377)">
<mask id="mask0_0_377" style="mask-type:luminance" maskUnits="userSpaceOnUse" x="62" y="46" width="45" height="45">
<path d="M62 46H107V91H62V46Z" fill="white"/>
</mask>
<g mask="url(#mask0_0_377)">
<path d="M63.875 72.25H105.125" stroke="black" stroke-width="2.66667" stroke-miterlimit="10" stroke-linecap="round" stroke-linejoin="round"/>
<path d="M63.875 85.375V51.625" stroke="black" stroke-width="2.66667" stroke-miterlimit="10" stroke-linecap="round" stroke-linejoin="round"/>
<path d="M78.875 72.25V66.625C78.875 62.4831 82.2331 59.125 86.375 59.125H97.625C101.767 59.125 105.125 62.4831 105.125 66.625V85.375" stroke="black" stroke-width="2.66667" stroke-miterlimit="10" stroke-linecap="round" stroke-linejoin="round"/>
<path d="M78.875 67.5625C78.875 70.1519 76.7769 72.25 74.1875 72.25C71.5981 72.25 69.5 70.1519 69.5 67.5625C69.5 64.9731 71.5981 62.875 74.1875 62.875C76.7769 62.875 78.875 64.9731 78.875 67.5625Z" stroke="black" stroke-width="2.66667" stroke-miterlimit="10" stroke-linecap="round" stroke-linejoin="round"/>
<path d="M105.125 79.75H63.875" stroke="black" stroke-width="2.66667" stroke-miterlimit="10" stroke-linecap="round" stroke-linejoin="round"/>
</g>
</g>
<path d="M48.541 114.182C48.541 114.579 48.4759 114.95 48.3457 115.295C48.2155 115.64 48.0365 115.956 47.8086 116.242C47.5807 116.522 47.3138 116.773 47.0078 116.994C46.7083 117.215 46.3828 117.401 46.0312 117.551C45.6862 117.701 45.3281 117.814 44.957 117.893C44.5859 117.964 44.2214 118 43.8633 118H35.5918V103.938H43.1504C43.4824 103.938 43.8307 103.964 44.1953 104.016C44.5599 104.061 44.9147 104.136 45.2598 104.24C45.6113 104.344 45.9434 104.481 46.2559 104.65C46.5749 104.82 46.8516 105.028 47.0859 105.275C47.3268 105.516 47.5156 105.796 47.6523 106.115C47.7956 106.434 47.8672 106.799 47.8672 107.209C47.8672 107.6 47.7891 107.954 47.6328 108.273C47.4766 108.592 47.265 108.879 46.998 109.133C46.7376 109.38 46.4349 109.602 46.0898 109.797C45.7513 109.986 45.3932 110.152 45.0156 110.295C45.4909 110.425 45.9401 110.598 46.3633 110.812C46.793 111.027 47.1673 111.291 47.4863 111.604C47.8118 111.916 48.069 112.287 48.2578 112.717C48.4466 113.14 48.541 113.628 48.541 114.182ZM43.9316 107.551C43.9316 106.757 43.7201 106.177 43.2969 105.812C42.8802 105.448 42.2845 105.266 41.5098 105.266H39.4688V109.826H41.1777C41.5293 109.826 41.8711 109.784 42.2031 109.699C42.5352 109.608 42.8281 109.471 43.082 109.289C43.3424 109.1 43.5475 108.863 43.6973 108.576C43.8535 108.29 43.9316 107.948 43.9316 107.551ZM44.6152 113.938C44.6152 113.553 44.5664 113.195 44.4688 112.863C44.3711 112.525 44.2214 112.235 44.0195 111.994C43.8177 111.747 43.5638 111.555 43.2578 111.418C42.9583 111.275 42.6035 111.203 42.1934 111.203H39.4688V116.633H41.8516C42.2487 116.633 42.6165 116.568 42.9551 116.438C43.2936 116.307 43.5866 116.125 43.834 115.891C44.0814 115.656 44.2734 115.373 44.4102 115.041C44.5469 114.709 44.6152 114.341 44.6152 113.938ZM53.2285 112.648C53.6322 112.74 54.0358 112.811 54.4395 112.863C54.8431 112.915 55.25 112.941 55.6602 112.941C56.0898 112.941 56.487 112.902 56.8516 112.824C57.2227 112.74 57.5417 112.603 57.8086 112.414C58.082 112.219 58.2969 111.962 58.4531 111.643C58.6094 111.324 58.6875 110.926 58.6875 110.451C58.6875 110.067 58.6354 109.715 58.5312 109.396C58.4271 109.077 58.2708 108.804 58.0625 108.576C57.8607 108.348 57.61 108.173 57.3105 108.049C57.0111 107.919 56.6628 107.854 56.2656 107.854C55.8945 107.854 55.5592 107.922 55.2598 108.059C54.9668 108.195 54.7064 108.381 54.4785 108.615C54.2572 108.843 54.0651 109.11 53.9023 109.416C53.7461 109.722 53.6159 110.041 53.5117 110.373C53.4076 110.705 53.3327 111.04 53.2871 111.379C53.2415 111.717 53.2188 112.036 53.2188 112.336C53.2188 112.388 53.2188 112.44 53.2188 112.492C53.2188 112.544 53.222 112.596 53.2285 112.648ZM61.3633 110.422C61.3633 110.884 61.2884 111.298 61.1387 111.662C60.9889 112.02 60.7839 112.336 60.5234 112.609C60.2695 112.883 59.9733 113.114 59.6348 113.303C59.2962 113.492 58.9349 113.648 58.5508 113.771C58.1667 113.889 57.7695 113.973 57.3594 114.025C56.9557 114.077 56.5618 114.104 56.1777 114.104C55.6895 114.104 55.2077 114.071 54.7324 114.006C54.2572 113.934 53.7884 113.824 53.3262 113.674C53.3978 114.104 53.5117 114.514 53.668 114.904C53.8242 115.288 54.0326 115.627 54.293 115.92C54.5534 116.206 54.8724 116.434 55.25 116.604C55.6341 116.773 56.0866 116.857 56.6074 116.857C56.9525 116.857 57.2812 116.805 57.5938 116.701C57.9062 116.597 58.1927 116.451 58.4531 116.262C58.7135 116.073 58.9414 115.848 59.1367 115.588C59.3385 115.327 59.5013 115.038 59.625 114.719L61.0508 115.246C60.8359 115.76 60.5397 116.206 60.1621 116.584C59.791 116.955 59.3678 117.264 58.8926 117.512C58.4238 117.753 57.9225 117.932 57.3887 118.049C56.8613 118.166 56.3372 118.225 55.8164 118.225C54.957 118.225 54.1628 118.081 53.4336 117.795C52.7044 117.502 52.0762 117.095 51.5488 116.574C51.0215 116.053 50.6081 115.432 50.3086 114.709C50.0091 113.986 49.8594 113.195 49.8594 112.336C49.8594 111.477 50.0091 110.686 50.3086 109.963C50.6081 109.24 51.0215 108.618 51.5488 108.098C52.0762 107.577 52.7044 107.173 53.4336 106.887C54.1628 106.594 54.957 106.447 55.8164 106.447C56.2331 106.447 56.6595 106.477 57.0957 106.535C57.5319 106.594 57.9551 106.688 58.3652 106.818C58.7754 106.942 59.1628 107.105 59.5273 107.307C59.8919 107.508 60.2077 107.759 60.4746 108.059C60.748 108.352 60.9629 108.693 61.1191 109.084C61.2819 109.475 61.3633 109.921 61.3633 110.422ZM74.791 118H73.5215L72.0566 115.549C71.9134 115.959 71.7148 116.33 71.4609 116.662C71.2135 116.994 70.9238 117.281 70.5918 117.521C70.2663 117.756 69.9049 117.938 69.5078 118.068C69.1172 118.199 68.7038 118.264 68.2676 118.264C67.4082 118.264 66.64 118.111 65.9629 117.805C65.2858 117.499 64.7129 117.082 64.2441 116.555C63.7754 116.021 63.4173 115.396 63.1699 114.68C62.9225 113.964 62.7988 113.195 62.7988 112.375C62.7988 111.555 62.9225 110.786 63.1699 110.07C63.4173 109.354 63.7754 108.732 64.2441 108.205C64.7129 107.678 65.2858 107.261 65.9629 106.955C66.64 106.649 67.4082 106.496 68.2676 106.496C68.9251 106.496 69.5273 106.623 70.0742 106.877C70.6276 107.131 71.0996 107.528 71.4902 108.068V102.57H74.791V118ZM71.4707 112.375C71.4707 112.115 71.4512 111.828 71.4121 111.516C71.373 111.203 71.3112 110.887 71.2266 110.568C71.1419 110.249 71.0312 109.94 70.8945 109.641C70.7578 109.341 70.5885 109.074 70.3867 108.84C70.1914 108.605 69.9603 108.42 69.6934 108.283C69.4329 108.14 69.1335 108.068 68.7949 108.068C68.4238 108.068 68.1016 108.137 67.8281 108.273C67.5547 108.404 67.3203 108.583 67.125 108.811C66.9297 109.032 66.7669 109.289 66.6367 109.582C66.513 109.875 66.4154 110.181 66.3438 110.5C66.2721 110.819 66.2201 111.141 66.1875 111.467C66.1615 111.786 66.1484 112.089 66.1484 112.375C66.1484 112.661 66.1615 112.967 66.1875 113.293C66.2201 113.612 66.2721 113.931 66.3438 114.25C66.4154 114.569 66.513 114.878 66.6367 115.178C66.7669 115.471 66.9297 115.731 67.125 115.959C67.3203 116.18 67.5547 116.359 67.8281 116.496C68.1016 116.626 68.4238 116.691 68.7949 116.691C69.166 116.691 69.4915 116.626 69.7715 116.496C70.0514 116.366 70.2891 116.19 70.4844 115.969C70.6862 115.741 70.849 115.484 70.9727 115.197C71.1029 114.904 71.2038 114.598 71.2754 114.279C71.347 113.954 71.3958 113.628 71.4219 113.303C71.4544 112.977 71.4707 112.668 71.4707 112.375ZM87.1348 107.717L85.2793 110.793C85.2012 110.533 85.1003 110.24 84.9766 109.914C84.8529 109.589 84.6999 109.286 84.5176 109.006C84.3353 108.719 84.1172 108.482 83.8633 108.293C83.6094 108.098 83.3164 108 82.9844 108C82.6784 108 82.4115 108.078 82.1836 108.234C81.9622 108.391 81.7734 108.596 81.6172 108.85C81.4609 109.097 81.3307 109.38 81.2266 109.699C81.1289 110.012 81.0508 110.331 80.9922 110.656C80.9401 110.975 80.9043 111.285 80.8848 111.584C80.8652 111.877 80.8555 112.131 80.8555 112.346V118H77.5449V106.721H78.8145L80.1523 109.348C80.3346 108.924 80.543 108.537 80.7773 108.186C81.0117 107.827 81.2819 107.521 81.5879 107.268C81.8939 107.007 82.2389 106.805 82.623 106.662C83.0137 106.519 83.4531 106.447 83.9414 106.447C84.1953 106.447 84.4785 106.47 84.791 106.516C85.1035 106.555 85.4095 106.626 85.709 106.73C86.0085 106.828 86.2852 106.958 86.5391 107.121C86.793 107.284 86.9915 107.482 87.1348 107.717ZM100.143 112.336C100.143 112.922 100.064 113.472 99.9082 113.986C99.752 114.501 99.5339 114.976 99.2539 115.412C98.9805 115.848 98.6484 116.242 98.2578 116.594C97.8672 116.939 97.4375 117.232 96.9688 117.473C96.5065 117.714 96.0085 117.899 95.4746 118.029C94.9473 118.16 94.4036 118.225 93.8438 118.225C93.2839 118.225 92.7402 118.16 92.2129 118.029C91.6855 117.899 91.1875 117.714 90.7188 117.473C90.2565 117.232 89.8301 116.939 89.4395 116.594C89.0488 116.242 88.7135 115.848 88.4336 115.412C88.1602 114.976 87.9453 114.501 87.7891 113.986C87.6328 113.465 87.5547 112.915 87.5547 112.336C87.5547 111.757 87.6328 111.21 87.7891 110.695C87.9453 110.174 88.1602 109.696 88.4336 109.26C88.7135 108.824 89.0488 108.433 89.4395 108.088C89.8301 107.736 90.2565 107.44 90.7188 107.199C91.1875 106.958 91.6855 106.773 92.2129 106.643C92.7402 106.512 93.2839 106.447 93.8438 106.447C94.4036 106.447 94.9473 106.512 95.4746 106.643C96.0085 106.773 96.5065 106.958 96.9688 107.199C97.4375 107.44 97.8672 107.736 98.2578 108.088C98.6484 108.433 98.9805 108.824 99.2539 109.26C99.5339 109.696 99.752 110.174 99.9082 110.695C100.064 111.21 100.143 111.757 100.143 112.336ZM96.7832 112.336C96.7832 112.023 96.7637 111.695 96.7246 111.35C96.6921 110.998 96.6335 110.656 96.5488 110.324C96.4642 109.986 96.347 109.663 96.1973 109.357C96.054 109.045 95.875 108.775 95.6602 108.547C95.4453 108.312 95.1882 108.127 94.8887 107.99C94.5892 107.847 94.2409 107.775 93.8438 107.775C93.4661 107.775 93.1309 107.847 92.8379 107.99C92.5449 108.133 92.2878 108.326 92.0664 108.566C91.8516 108.801 91.6693 109.074 91.5195 109.387C91.3763 109.699 91.2591 110.025 91.168 110.363C91.0768 110.695 91.0117 111.034 90.9727 111.379C90.9336 111.717 90.9141 112.036 90.9141 112.336C90.9141 112.635 90.9336 112.958 90.9727 113.303C91.0117 113.641 91.0768 113.98 91.168 114.318C91.2591 114.657 91.3763 114.982 91.5195 115.295C91.6693 115.601 91.8516 115.874 92.0664 116.115C92.2878 116.35 92.5449 116.538 92.8379 116.682C93.1309 116.825 93.4661 116.896 93.8438 116.896C94.2344 116.896 94.5794 116.828 94.8789 116.691C95.1784 116.548 95.4355 116.359 95.6504 116.125C95.8717 115.891 96.054 115.62 96.1973 115.314C96.3405 115.008 96.4544 114.686 96.5391 114.348C96.6302 114.009 96.6921 113.667 96.7246 113.322C96.7637 112.977 96.7832 112.648 96.7832 112.336ZM114.146 112.336C114.146 112.922 114.068 113.472 113.912 113.986C113.756 114.501 113.538 114.976 113.258 115.412C112.984 115.848 112.652 116.242 112.262 116.594C111.871 116.939 111.441 117.232 110.973 117.473C110.51 117.714 110.012 117.899 109.479 118.029C108.951 118.16 108.408 118.225 107.848 118.225C107.288 118.225 106.744 118.16 106.217 118.029C105.689 117.899 105.191 117.714 104.723 117.473C104.26 117.232 103.834 116.939 103.443 116.594C103.053 116.242 102.717 115.848 102.438 115.412C102.164 114.976 101.949 114.501 101.793 113.986C101.637 113.465 101.559 112.915 101.559 112.336C101.559 111.757 101.637 111.21 101.793 110.695C101.949 110.174 102.164 109.696 102.438 109.26C102.717 108.824 103.053 108.433 103.443 108.088C103.834 107.736 104.26 107.44 104.723 107.199C105.191 106.958 105.689 106.773 106.217 106.643C106.744 106.512 107.288 106.447 107.848 106.447C108.408 106.447 108.951 106.512 109.479 106.643C110.012 106.773 110.51 106.958 110.973 107.199C111.441 107.44 111.871 107.736 112.262 108.088C112.652 108.433 112.984 108.824 113.258 109.26C113.538 109.696 113.756 110.174 113.912 110.695C114.068 111.21 114.146 111.757 114.146 112.336ZM110.787 112.336C110.787 112.023 110.768 111.695 110.729 111.35C110.696 110.998 110.637 110.656 110.553 110.324C110.468 109.986 110.351 109.663 110.201 109.357C110.058 109.045 109.879 108.775 109.664 108.547C109.449 108.312 109.192 108.127 108.893 107.99C108.593 107.847 108.245 107.775 107.848 107.775C107.47 107.775 107.135 107.847 106.842 107.99C106.549 108.133 106.292 108.326 106.07 108.566C105.855 108.801 105.673 109.074 105.523 109.387C105.38 109.699 105.263 110.025 105.172 110.363C105.081 110.695 105.016 111.034 104.977 111.379C104.938 111.717 104.918 112.036 104.918 112.336C104.918 112.635 104.938 112.958 104.977 113.303C105.016 113.641 105.081 113.98 105.172 114.318C105.263 114.657 105.38 114.982 105.523 115.295C105.673 115.601 105.855 115.874 106.07 116.115C106.292 116.35 106.549 116.538 106.842 116.682C107.135 116.825 107.47 116.896 107.848 116.896C108.238 116.896 108.583 116.828 108.883 116.691C109.182 116.548 109.439 116.359 109.654 116.125C109.876 115.891 110.058 115.62 110.201 115.314C110.344 115.008 110.458 114.686 110.543 114.348C110.634 114.009 110.696 113.667 110.729 113.322C110.768 112.977 110.787 112.648 110.787 112.336ZM133.688 111.418C133.688 112.193 133.596 113 133.414 113.84C133.232 114.68 132.975 115.5 132.643 116.301C132.317 117.095 131.923 117.847 131.461 118.557C130.999 119.266 130.484 119.882 129.918 120.402L128.678 119.729C128.867 119.39 129.039 119.009 129.195 118.586C129.352 118.163 129.495 117.717 129.625 117.248C129.755 116.779 129.869 116.298 129.967 115.803C130.064 115.308 130.146 114.816 130.211 114.328C130.283 113.833 130.335 113.355 130.367 112.893C130.4 112.43 130.416 111.997 130.416 111.594C130.416 111.366 130.41 111.118 130.396 110.852C130.383 110.585 130.354 110.318 130.309 110.051C130.27 109.784 130.208 109.53 130.123 109.289C130.038 109.042 129.921 108.824 129.771 108.635C129.628 108.439 129.446 108.286 129.225 108.176C129.01 108.059 128.749 108 128.443 108C128.144 108 127.887 108.081 127.672 108.244C127.464 108.4 127.285 108.605 127.135 108.859C126.985 109.113 126.865 109.4 126.773 109.719C126.689 110.038 126.624 110.36 126.578 110.686C126.533 111.005 126.5 111.311 126.48 111.604C126.467 111.896 126.461 112.144 126.461 112.346V118H123.17V112.746C123.17 112.518 123.173 112.245 123.18 111.926C123.186 111.6 123.176 111.262 123.15 110.91C123.131 110.559 123.089 110.21 123.023 109.865C122.965 109.514 122.867 109.201 122.73 108.928C122.6 108.654 122.421 108.433 122.193 108.264C121.965 108.088 121.679 108 121.334 108C121.041 108 120.794 108.081 120.592 108.244C120.396 108.407 120.23 108.618 120.094 108.879C119.964 109.133 119.859 109.423 119.781 109.748C119.71 110.067 119.654 110.389 119.615 110.715C119.583 111.034 119.563 111.34 119.557 111.633C119.55 111.919 119.547 112.157 119.547 112.346V118H116.236V106.721H117.506L118.717 109.348C118.99 108.436 119.42 107.727 120.006 107.219C120.598 106.704 121.383 106.447 122.359 106.447C123.238 106.447 123.967 106.63 124.547 106.994C125.126 107.359 125.582 107.951 125.914 108.771C126.103 108.413 126.311 108.091 126.539 107.805C126.773 107.518 127.031 107.274 127.311 107.072C127.597 106.87 127.913 106.717 128.258 106.613C128.603 106.503 128.984 106.447 129.4 106.447C130.169 106.447 130.823 106.574 131.363 106.828C131.91 107.076 132.356 107.421 132.701 107.863C133.046 108.306 133.297 108.833 133.453 109.445C133.609 110.051 133.688 110.708 133.688 111.418Z" fill="black"/>
<defs>
<clipPath id="clip0_0_377">
<rect width="45" height="45" fill="white" transform="translate(62 46)"/>
</clipPath>
</defs>
</svg>
