<svg width="169" height="170" viewBox="0 0 169 170" fill="none" xmlns="http://www.w3.org/2000/svg">
<rect width="169" height="170" rx="40" fill="#F9BB6C"/>
<g clip-path="url(#clip0_0_397)">
<path d="M105.592 70.4035C104.525 69.1941 102.987 68.5004 101.375 68.5004H65.75V54.4041C65.75 52.8273 66.4625 51.2673 67.7994 50.4291C69.8412 49.1485 72.335 49.7785 73.625 51.4998L74.1106 52.1466L73.205 57.3423C73.0962 57.9685 73.2256 58.6135 73.5688 59.1479C74.3656 60.3891 76.0494 60.6929 77.2287 59.8079L83.99 54.7379C85.0531 53.941 85.3213 52.456 84.6031 51.3366L84.5788 51.2973C84.1344 50.6035 83.3787 50.1685 82.5556 50.131L77.1069 49.8891L76.7806 49.4541C75.5469 47.8098 73.7938 46.5629 71.7763 46.1635C66.575 45.1341 62 49.1054 62 54.1248C62 54.1248 62.0075 64.831 62.0113 68.9804C62.0113 70.0604 62.0806 71.1273 62.2138 72.1998C62.4031 73.7166 62.6581 75.7623 62.6581 75.7623C63.1287 79.5216 64.9513 82.8254 67.5988 85.2066L66.7419 88.6754C66.4925 89.6804 67.1056 90.6966 68.1106 90.946C68.2625 90.9835 68.4125 91.0004 68.5625 91.0004C69.4044 91.0004 70.1694 90.4285 70.3812 89.5754L70.9006 87.4735C72.98 88.531 75.3256 89.1254 77.7931 89.1254H91.7C93.9931 89.1254 96.1813 88.6135 98.15 87.691L98.6169 89.5754C98.8269 90.4285 99.5938 91.0004 100.436 91.0004C100.586 91.0004 100.736 90.9816 100.888 90.946C101.892 90.6966 102.506 89.6804 102.256 88.6754L101.487 85.5629C104.356 83.1591 106.346 79.7129 106.839 75.7641L106.955 74.8248C107.154 73.2235 106.659 71.6148 105.59 70.4054L105.592 70.4035ZM103.235 74.3579L103.119 75.2973C102.401 81.0423 97.4919 85.3754 91.7019 85.3754H77.795C72.005 85.3754 67.0981 81.0423 66.38 75.2973L65.9994 72.2504H101.375C101.921 72.2504 102.421 72.4754 102.781 72.8841C103.141 73.2948 103.303 73.816 103.235 74.3579Z" fill="black"/>
</g>
<path d="M43.541 114.182C43.541 114.579 43.4759 114.95 43.3457 115.295C43.2155 115.64 43.0365 115.956 42.8086 116.242C42.5807 116.522 42.3138 116.773 42.0078 116.994C41.7083 117.215 41.3828 117.401 41.0312 117.551C40.6862 117.701 40.3281 117.814 39.957 117.893C39.5859 117.964 39.2214 118 38.8633 118H30.5918V103.938H38.1504C38.4824 103.938 38.8307 103.964 39.1953 104.016C39.5599 104.061 39.9147 104.136 40.2598 104.24C40.6113 104.344 40.9434 104.481 41.2559 104.65C41.5749 104.82 41.8516 105.028 42.0859 105.275C42.3268 105.516 42.5156 105.796 42.6523 106.115C42.7956 106.434 42.8672 106.799 42.8672 107.209C42.8672 107.6 42.7891 107.954 42.6328 108.273C42.4766 108.592 42.265 108.879 41.998 109.133C41.7376 109.38 41.4349 109.602 41.0898 109.797C40.7513 109.986 40.3932 110.152 40.0156 110.295C40.4909 110.425 40.9401 110.598 41.3633 110.812C41.793 111.027 42.1673 111.291 42.4863 111.604C42.8118 111.916 43.069 112.287 43.2578 112.717C43.4466 113.14 43.541 113.628 43.541 114.182ZM38.9316 107.551C38.9316 106.757 38.7201 106.177 38.2969 105.812C37.8802 105.448 37.2845 105.266 36.5098 105.266H34.4688V109.826H36.1777C36.5293 109.826 36.8711 109.784 37.2031 109.699C37.5352 109.608 37.8281 109.471 38.082 109.289C38.3424 109.1 38.5475 108.863 38.6973 108.576C38.8535 108.29 38.9316 107.948 38.9316 107.551ZM39.6152 113.938C39.6152 113.553 39.5664 113.195 39.4688 112.863C39.3711 112.525 39.2214 112.235 39.0195 111.994C38.8177 111.747 38.5638 111.555 38.2578 111.418C37.9583 111.275 37.6035 111.203 37.1934 111.203H34.4688V116.633H36.8516C37.2487 116.633 37.6165 116.568 37.9551 116.438C38.2936 116.307 38.5866 116.125 38.834 115.891C39.0814 115.656 39.2734 115.373 39.4102 115.041C39.5469 114.709 39.6152 114.341 39.6152 113.938ZM56.8906 118H53.5898V116.652C53.1992 117.186 52.7272 117.583 52.1738 117.844C51.627 118.098 51.0247 118.225 50.3672 118.225C49.5078 118.225 48.7396 118.072 48.0625 117.766C47.3854 117.46 46.8125 117.043 46.3438 116.516C45.875 115.982 45.5169 115.357 45.2695 114.641C45.0221 113.924 44.8984 113.156 44.8984 112.336C44.8984 111.516 45.0221 110.747 45.2695 110.031C45.5169 109.315 45.875 108.693 46.3438 108.166C46.8125 107.632 47.3854 107.212 48.0625 106.906C48.7396 106.6 49.5078 106.447 50.3672 106.447C50.8034 106.447 51.2168 106.512 51.6074 106.643C52.0046 106.773 52.3659 106.958 52.6914 107.199C53.0234 107.434 53.3132 107.72 53.5605 108.059C53.8145 108.391 54.013 108.762 54.1562 109.172L55.6211 106.721H56.8906V118ZM53.5703 112.336C53.5703 112.043 53.554 111.734 53.5215 111.408C53.4954 111.083 53.4466 110.76 53.375 110.441C53.3034 110.122 53.2025 109.82 53.0723 109.533C52.9486 109.24 52.7858 108.983 52.584 108.762C52.3887 108.534 52.151 108.355 51.8711 108.225C51.5911 108.094 51.2656 108.029 50.8945 108.029C50.5234 108.029 50.2012 108.098 49.9277 108.234C49.6543 108.365 49.4199 108.544 49.2246 108.771C49.0293 108.993 48.8665 109.25 48.7363 109.543C48.6126 109.836 48.515 110.142 48.4434 110.461C48.3717 110.78 48.3197 111.102 48.2871 111.428C48.2611 111.747 48.248 112.049 48.248 112.336C48.248 112.622 48.2611 112.928 48.2871 113.254C48.3197 113.579 48.3717 113.902 48.4434 114.221C48.515 114.54 48.6126 114.846 48.7363 115.139C48.8665 115.432 49.0293 115.692 49.2246 115.92C49.4199 116.141 49.6543 116.32 49.9277 116.457C50.2012 116.587 50.5234 116.652 50.8945 116.652C51.2331 116.652 51.5326 116.584 51.793 116.447C52.0599 116.304 52.291 116.115 52.4863 115.881C52.6882 115.646 52.8574 115.38 52.9941 115.08C53.1309 114.781 53.2415 114.471 53.3262 114.152C53.4108 113.833 53.4727 113.518 53.5117 113.205C53.5508 112.886 53.5703 112.596 53.5703 112.336ZM63.9023 118H60.5918V108.029H58.541V106.721H60.5918V102.57H63.9023V106.721H67.3203V108.029H63.9023V118ZM80.3867 111.535C80.3867 112.297 80.2923 113.091 80.1035 113.918C79.9212 114.745 79.6641 115.555 79.332 116.35C79 117.144 78.6029 117.889 78.1406 118.586C77.6784 119.289 77.1706 119.895 76.6172 120.402L75.377 119.729C75.5527 119.403 75.7188 119.038 75.875 118.635C76.0312 118.231 76.1712 117.805 76.2949 117.355C76.4251 116.9 76.5391 116.431 76.6367 115.949C76.7409 115.467 76.8255 114.992 76.8906 114.523C76.9622 114.048 77.0143 113.589 77.0469 113.146C77.0859 112.697 77.1055 112.281 77.1055 111.896C77.1055 111.643 77.0957 111.372 77.0762 111.086C77.0566 110.793 77.0143 110.503 76.9492 110.217C76.8906 109.924 76.8092 109.644 76.7051 109.377C76.6009 109.11 76.4609 108.876 76.2852 108.674C76.1159 108.472 75.9076 108.309 75.6602 108.186C75.4193 108.062 75.1328 108 74.8008 108C74.4753 108 74.1855 108.075 73.9316 108.225C73.6777 108.368 73.4531 108.56 73.2578 108.801C73.0625 109.035 72.8932 109.305 72.75 109.611C72.6133 109.917 72.4993 110.233 72.4082 110.559C72.3236 110.878 72.2617 111.193 72.2227 111.506C72.1836 111.818 72.1641 112.098 72.1641 112.346V118H68.8535V102.57H72.1543V108.381C72.5775 107.762 73.0951 107.287 73.707 106.955C74.3255 106.617 75.0091 106.447 75.7578 106.447C76.5391 106.447 77.2194 106.574 77.7988 106.828C78.3783 107.082 78.86 107.437 79.2441 107.893C79.6283 108.342 79.9147 108.879 80.1035 109.504C80.2923 110.122 80.3867 110.799 80.3867 111.535ZM92.1543 107.717L90.2988 110.793C90.2207 110.533 90.1198 110.24 89.9961 109.914C89.8724 109.589 89.7194 109.286 89.5371 109.006C89.3548 108.719 89.1367 108.482 88.8828 108.293C88.6289 108.098 88.3359 108 88.0039 108C87.6979 108 87.431 108.078 87.2031 108.234C86.9818 108.391 86.793 108.596 86.6367 108.85C86.4805 109.097 86.3503 109.38 86.2461 109.699C86.1484 110.012 86.0703 110.331 86.0117 110.656C85.9596 110.975 85.9238 111.285 85.9043 111.584C85.8848 111.877 85.875 112.131 85.875 112.346V118H82.5645V106.721H83.834L85.1719 109.348C85.3542 108.924 85.5625 108.537 85.7969 108.186C86.0312 107.827 86.3014 107.521 86.6074 107.268C86.9134 107.007 87.2585 106.805 87.6426 106.662C88.0332 106.519 88.4727 106.447 88.9609 106.447C89.2148 106.447 89.498 106.47 89.8105 106.516C90.123 106.555 90.429 106.626 90.7285 106.73C91.028 106.828 91.3047 106.958 91.5586 107.121C91.8125 107.284 92.0111 107.482 92.1543 107.717ZM105.162 112.336C105.162 112.922 105.084 113.472 104.928 113.986C104.771 114.501 104.553 114.976 104.273 115.412C104 115.848 103.668 116.242 103.277 116.594C102.887 116.939 102.457 117.232 101.988 117.473C101.526 117.714 101.028 117.899 100.494 118.029C99.9668 118.16 99.4232 118.225 98.8633 118.225C98.3034 118.225 97.7598 118.16 97.2324 118.029C96.7051 117.899 96.207 117.714 95.7383 117.473C95.276 117.232 94.8496 116.939 94.459 116.594C94.0684 116.242 93.7331 115.848 93.4531 115.412C93.1797 114.976 92.9648 114.501 92.8086 113.986C92.6523 113.465 92.5742 112.915 92.5742 112.336C92.5742 111.757 92.6523 111.21 92.8086 110.695C92.9648 110.174 93.1797 109.696 93.4531 109.26C93.7331 108.824 94.0684 108.433 94.459 108.088C94.8496 107.736 95.276 107.44 95.7383 107.199C96.207 106.958 96.7051 106.773 97.2324 106.643C97.7598 106.512 98.3034 106.447 98.8633 106.447C99.4232 106.447 99.9668 106.512 100.494 106.643C101.028 106.773 101.526 106.958 101.988 107.199C102.457 107.44 102.887 107.736 103.277 108.088C103.668 108.433 104 108.824 104.273 109.26C104.553 109.696 104.771 110.174 104.928 110.695C105.084 111.21 105.162 111.757 105.162 112.336ZM101.803 112.336C101.803 112.023 101.783 111.695 101.744 111.35C101.712 110.998 101.653 110.656 101.568 110.324C101.484 109.986 101.367 109.663 101.217 109.357C101.074 109.045 100.895 108.775 100.68 108.547C100.465 108.312 100.208 108.127 99.9082 107.99C99.6087 107.847 99.2604 107.775 98.8633 107.775C98.4857 107.775 98.1504 107.847 97.8574 107.99C97.5645 108.133 97.3073 108.326 97.0859 108.566C96.8711 108.801 96.6888 109.074 96.5391 109.387C96.3958 109.699 96.2786 110.025 96.1875 110.363C96.0964 110.695 96.0312 111.034 95.9922 111.379C95.9531 111.717 95.9336 112.036 95.9336 112.336C95.9336 112.635 95.9531 112.958 95.9922 113.303C96.0312 113.641 96.0964 113.98 96.1875 114.318C96.2786 114.657 96.3958 114.982 96.5391 115.295C96.6888 115.601 96.8711 115.874 97.0859 116.115C97.3073 116.35 97.5645 116.538 97.8574 116.682C98.1504 116.825 98.4857 116.896 98.8633 116.896C99.2539 116.896 99.599 116.828 99.8984 116.691C100.198 116.548 100.455 116.359 100.67 116.125C100.891 115.891 101.074 115.62 101.217 115.314C101.36 115.008 101.474 114.686 101.559 114.348C101.65 114.009 101.712 113.667 101.744 113.322C101.783 112.977 101.803 112.648 101.803 112.336ZM119.166 112.336C119.166 112.922 119.088 113.472 118.932 113.986C118.775 114.501 118.557 114.976 118.277 115.412C118.004 115.848 117.672 116.242 117.281 116.594C116.891 116.939 116.461 117.232 115.992 117.473C115.53 117.714 115.032 117.899 114.498 118.029C113.971 118.16 113.427 118.225 112.867 118.225C112.307 118.225 111.764 118.16 111.236 118.029C110.709 117.899 110.211 117.714 109.742 117.473C109.28 117.232 108.854 116.939 108.463 116.594C108.072 116.242 107.737 115.848 107.457 115.412C107.184 114.976 106.969 114.501 106.812 113.986C106.656 113.465 106.578 112.915 106.578 112.336C106.578 111.757 106.656 111.21 106.812 110.695C106.969 110.174 107.184 109.696 107.457 109.26C107.737 108.824 108.072 108.433 108.463 108.088C108.854 107.736 109.28 107.44 109.742 107.199C110.211 106.958 110.709 106.773 111.236 106.643C111.764 106.512 112.307 106.447 112.867 106.447C113.427 106.447 113.971 106.512 114.498 106.643C115.032 106.773 115.53 106.958 115.992 107.199C116.461 107.44 116.891 107.736 117.281 108.088C117.672 108.433 118.004 108.824 118.277 109.26C118.557 109.696 118.775 110.174 118.932 110.695C119.088 111.21 119.166 111.757 119.166 112.336ZM115.807 112.336C115.807 112.023 115.787 111.695 115.748 111.35C115.715 110.998 115.657 110.656 115.572 110.324C115.488 109.986 115.37 109.663 115.221 109.357C115.077 109.045 114.898 108.775 114.684 108.547C114.469 108.312 114.212 108.127 113.912 107.99C113.613 107.847 113.264 107.775 112.867 107.775C112.49 107.775 112.154 107.847 111.861 107.99C111.568 108.133 111.311 108.326 111.09 108.566C110.875 108.801 110.693 109.074 110.543 109.387C110.4 109.699 110.283 110.025 110.191 110.363C110.1 110.695 110.035 111.034 109.996 111.379C109.957 111.717 109.938 112.036 109.938 112.336C109.938 112.635 109.957 112.958 109.996 113.303C110.035 113.641 110.1 113.98 110.191 114.318C110.283 114.657 110.4 114.982 110.543 115.295C110.693 115.601 110.875 115.874 111.09 116.115C111.311 116.35 111.568 116.538 111.861 116.682C112.154 116.825 112.49 116.896 112.867 116.896C113.258 116.896 113.603 116.828 113.902 116.691C114.202 116.548 114.459 116.359 114.674 116.125C114.895 115.891 115.077 115.62 115.221 115.314C115.364 115.008 115.478 114.686 115.562 114.348C115.654 114.009 115.715 113.667 115.748 113.322C115.787 112.977 115.807 112.648 115.807 112.336ZM138.707 111.418C138.707 112.193 138.616 113 138.434 113.84C138.251 114.68 137.994 115.5 137.662 116.301C137.337 117.095 136.943 117.847 136.48 118.557C136.018 119.266 135.504 119.882 134.938 120.402L133.697 119.729C133.886 119.39 134.059 119.009 134.215 118.586C134.371 118.163 134.514 117.717 134.645 117.248C134.775 116.779 134.889 116.298 134.986 115.803C135.084 115.308 135.165 114.816 135.23 114.328C135.302 113.833 135.354 113.355 135.387 112.893C135.419 112.43 135.436 111.997 135.436 111.594C135.436 111.366 135.429 111.118 135.416 110.852C135.403 110.585 135.374 110.318 135.328 110.051C135.289 109.784 135.227 109.53 135.143 109.289C135.058 109.042 134.941 108.824 134.791 108.635C134.648 108.439 134.465 108.286 134.244 108.176C134.029 108.059 133.769 108 133.463 108C133.163 108 132.906 108.081 132.691 108.244C132.483 108.4 132.304 108.605 132.154 108.859C132.005 109.113 131.884 109.4 131.793 109.719C131.708 110.038 131.643 110.36 131.598 110.686C131.552 111.005 131.52 111.311 131.5 111.604C131.487 111.896 131.48 112.144 131.48 112.346V118H128.189V112.746C128.189 112.518 128.193 112.245 128.199 111.926C128.206 111.6 128.196 111.262 128.17 110.91C128.15 110.559 128.108 110.21 128.043 109.865C127.984 109.514 127.887 109.201 127.75 108.928C127.62 108.654 127.441 108.433 127.213 108.264C126.985 108.088 126.699 108 126.354 108C126.061 108 125.813 108.081 125.611 108.244C125.416 108.407 125.25 108.618 125.113 108.879C124.983 109.133 124.879 109.423 124.801 109.748C124.729 110.067 124.674 110.389 124.635 110.715C124.602 111.034 124.583 111.34 124.576 111.633C124.57 111.919 124.566 112.157 124.566 112.346V118H121.256V106.721H122.525L123.736 109.348C124.01 108.436 124.439 107.727 125.025 107.219C125.618 106.704 126.402 106.447 127.379 106.447C128.258 106.447 128.987 106.63 129.566 106.994C130.146 107.359 130.602 107.951 130.934 108.771C131.122 108.413 131.331 108.091 131.559 107.805C131.793 107.518 132.05 107.274 132.33 107.072C132.617 106.87 132.932 106.717 133.277 106.613C133.622 106.503 134.003 106.447 134.42 106.447C135.188 106.447 135.842 106.574 136.383 106.828C136.93 107.076 137.376 107.421 137.721 107.863C138.066 108.306 138.316 108.833 138.473 109.445C138.629 110.051 138.707 110.708 138.707 111.418Z" fill="black"/>
<defs>
<clipPath id="clip0_0_397">
<rect width="45" height="45" fill="white" transform="translate(62 46)"/>
</clipPath>
</defs>
</svg>
