<svg width="169" height="170" viewBox="0 0 169 170" fill="none" xmlns="http://www.w3.org/2000/svg">
<rect width="169" height="170" rx="40" fill="#8B56D1"/>
<g clip-path="url(#clip0_0_407)">
<mask id="mask0_0_407" style="mask-type:luminance" maskUnits="userSpaceOnUse" x="62" y="46" width="45" height="45">
<path d="M62 46H107V91H62V46Z" fill="white"/>
</mask>
<g mask="url(#mask0_0_407)">
<path d="M84.5 82.5625C78.1475 82.5625 71.9713 77.695 70.0494 72.25C70.0063 72.2575 69.815 72.2631 69.5319 72.265C66.9388 72.2912 64.8125 70.1969 64.8125 67.6037C64.8125 65.41 66.3988 63.5913 68.4838 63.2125C69.3388 55.1181 76.1806 48.8125 84.5 48.8125C92.8194 48.8125 99.6613 55.1181 100.514 63.2125C102.601 63.5913 104.188 65.41 104.188 67.6037C104.188 70.1969 102.061 72.2912 99.4681 72.265C99.185 72.2631 98.9938 72.2575 98.9506 72.25C97.0288 77.695 90.8525 82.5625 84.5 82.5625Z" stroke="black" stroke-width="4" stroke-miterlimit="10" stroke-linecap="round" stroke-linejoin="round"/>
<path d="M82.625 67.5625C82.625 69.115 81.365 70.375 79.8125 70.375C78.26 70.375 77 69.115 77 67.5625C77 66.01 78.26 64.75 79.8125 64.75C81.365 64.75 82.625 66.01 82.625 67.5625Z" fill="black"/>
<path d="M92 67.5625C92 69.115 90.74 70.375 89.1875 70.375C87.635 70.375 86.375 69.115 86.375 67.5625C86.375 66.01 87.635 64.75 89.1875 64.75C90.74 64.75 92 66.01 92 67.5625Z" fill="black"/>
<path d="M73.2298 79.7299C70.8373 82.1224 69.3729 85.0887 68.8198 88.188" stroke="black" stroke-width="4" stroke-miterlimit="10" stroke-linecap="round" stroke-linejoin="round"/>
<path d="M100.179 88.1873C99.6262 85.0898 98.1637 82.1236 95.7693 79.7292" stroke="black" stroke-width="4" stroke-miterlimit="10" stroke-linecap="round" stroke-linejoin="round"/>
<path d="M88.4771 58.4146C86.2815 60.6121 82.719 60.6121 80.5234 58.4146C78.3259 56.2189 78.3259 52.6564 80.5234 50.4608C81.6221 49.3621 83.0602 48.8127 84.5002 48.8127" stroke="black" stroke-width="4" stroke-miterlimit="10" stroke-linecap="round" stroke-linejoin="round"/>
</g>
</g>
<path d="M44.3887 118H42.5918V103.938H45.1113L53.6562 113.596V103.938H55.4434V118H52.9238L44.3887 108.352V118ZM57.6406 113.176C57.6406 112.661 57.6829 112.128 57.7676 111.574C57.8587 111.021 57.9857 110.467 58.1484 109.914C58.3177 109.361 58.5195 108.814 58.7539 108.273C58.9883 107.733 59.252 107.215 59.5449 106.721H61.957C61.7943 107.209 61.6478 107.72 61.5176 108.254C61.3939 108.781 61.2865 109.312 61.1953 109.846C61.1107 110.373 61.0423 110.891 60.9902 111.398C60.9447 111.906 60.9219 112.378 60.9219 112.814C60.9219 113.068 60.9316 113.342 60.9512 113.635C60.9772 113.921 61.0195 114.211 61.0781 114.504C61.1367 114.79 61.2181 115.067 61.3223 115.334C61.4329 115.601 61.5729 115.839 61.7422 116.047C61.9115 116.249 62.1165 116.411 62.3574 116.535C62.6048 116.652 62.8945 116.711 63.2266 116.711C63.5521 116.711 63.8418 116.639 64.0957 116.496C64.3561 116.346 64.584 116.154 64.7793 115.92C64.9746 115.679 65.1406 115.406 65.2773 115.1C65.4141 114.794 65.5247 114.481 65.6094 114.162C65.7005 113.837 65.7656 113.521 65.8047 113.215C65.8503 112.902 65.873 112.622 65.873 112.375V106.721H69.1738V118H67.9043L66.3906 115.373C66.2018 115.809 65.9707 116.206 65.6973 116.564C65.4303 116.916 65.1243 117.219 64.7793 117.473C64.4342 117.727 64.0501 117.922 63.627 118.059C63.2103 118.195 62.7578 118.264 62.2695 118.264C61.4883 118.264 60.8079 118.137 60.2285 117.883C59.6491 117.629 59.1673 117.277 58.7832 116.828C58.3991 116.379 58.1126 115.845 57.9238 115.227C57.735 114.602 57.6406 113.918 57.6406 113.176ZM81.5176 107.717L79.6621 110.793C79.584 110.533 79.4831 110.24 79.3594 109.914C79.2357 109.589 79.0827 109.286 78.9004 109.006C78.7181 108.719 78.5 108.482 78.2461 108.293C77.9922 108.098 77.6992 108 77.3672 108C77.0612 108 76.7943 108.078 76.5664 108.234C76.3451 108.391 76.1562 108.596 76 108.85C75.8438 109.097 75.7135 109.38 75.6094 109.699C75.5117 110.012 75.4336 110.331 75.375 110.656C75.3229 110.975 75.2871 111.285 75.2676 111.584C75.248 111.877 75.2383 112.131 75.2383 112.346V118H71.9277V106.721H73.1973L74.5352 109.348C74.7174 108.924 74.9258 108.537 75.1602 108.186C75.3945 107.827 75.6647 107.521 75.9707 107.268C76.2767 107.007 76.6217 106.805 77.0059 106.662C77.3965 106.519 77.8359 106.447 78.3242 106.447C78.5781 106.447 78.8613 106.47 79.1738 106.516C79.4863 106.555 79.7923 106.626 80.0918 106.73C80.3913 106.828 80.668 106.958 80.9219 107.121C81.1758 107.284 81.3743 107.482 81.5176 107.717ZM92.6113 114.396C92.6113 114.891 92.5397 115.331 92.3965 115.715C92.2533 116.099 92.0579 116.434 91.8105 116.721C91.5632 117.001 91.2702 117.238 90.9316 117.434C90.5931 117.622 90.2285 117.775 89.8379 117.893C89.4538 118.01 89.0501 118.094 88.627 118.146C88.2038 118.199 87.7839 118.225 87.3672 118.225C86.8073 118.225 86.3125 118.189 85.8828 118.117C85.4531 118.046 85.043 117.932 84.6523 117.775C84.2617 117.613 83.8711 117.404 83.4805 117.15C83.0964 116.896 82.6667 116.587 82.1914 116.223L84.1152 114.65C84.291 114.982 84.5221 115.285 84.8086 115.559C85.1016 115.826 85.4043 116.057 85.7168 116.252C86.0293 116.447 86.332 116.597 86.625 116.701C86.918 116.805 87.1556 116.857 87.3379 116.857C87.4876 116.857 87.6569 116.854 87.8457 116.848C88.0345 116.835 88.2266 116.815 88.4219 116.789C88.6172 116.757 88.8092 116.711 88.998 116.652C89.1868 116.594 89.3529 116.516 89.4961 116.418C89.6458 116.314 89.763 116.187 89.8477 116.037C89.9388 115.881 89.9844 115.695 89.9844 115.48C89.9844 115.259 89.9258 115.067 89.8086 114.904C89.6979 114.735 89.5514 114.589 89.3691 114.465C89.1868 114.341 88.9785 114.237 88.7441 114.152C88.5098 114.068 88.2721 113.993 88.0312 113.928C87.7969 113.863 87.569 113.807 87.3477 113.762C87.1263 113.71 86.9342 113.661 86.7715 113.615C86.472 113.531 86.1562 113.446 85.8242 113.361C85.4922 113.27 85.1634 113.169 84.8379 113.059C84.5124 112.941 84.1999 112.805 83.9004 112.648C83.6074 112.492 83.347 112.307 83.1191 112.092C82.8978 111.87 82.7188 111.613 82.582 111.32C82.4518 111.021 82.3867 110.673 82.3867 110.275C82.3867 109.546 82.5299 108.938 82.8164 108.449C83.1094 107.954 83.4935 107.561 83.9688 107.268C84.444 106.968 84.9844 106.757 85.5898 106.633C86.1953 106.509 86.8105 106.447 87.4355 106.447C87.8652 106.447 88.3177 106.493 88.793 106.584C89.2682 106.669 89.7305 106.799 90.1797 106.975C90.6289 107.144 91.0488 107.352 91.4395 107.6C91.8301 107.847 92.1556 108.13 92.416 108.449L90.4922 110.031C90.349 109.641 90.1602 109.305 89.9258 109.025C89.6979 108.745 89.4473 108.518 89.1738 108.342C88.9069 108.16 88.6302 108.026 88.3438 107.941C88.0638 107.857 87.8034 107.814 87.5625 107.814C87.3281 107.814 87.0645 107.824 86.7715 107.844C86.4785 107.863 86.2018 107.919 85.9414 108.01C85.6875 108.101 85.4694 108.241 85.2871 108.43C85.1113 108.612 85.0234 108.866 85.0234 109.191C85.0234 109.426 85.0755 109.628 85.1797 109.797C85.2904 109.96 85.4336 110.103 85.6094 110.227C85.7852 110.344 85.9837 110.445 86.2051 110.529C86.4329 110.607 86.6641 110.679 86.8984 110.744C87.1328 110.803 87.3607 110.855 87.582 110.9C87.8034 110.946 88.002 110.995 88.1777 111.047C88.4772 111.132 88.793 111.219 89.125 111.311C89.4635 111.395 89.7956 111.496 90.1211 111.613C90.4466 111.724 90.7591 111.857 91.0586 112.014C91.3646 112.163 91.6315 112.349 91.8594 112.57C92.0872 112.792 92.2695 113.052 92.4062 113.352C92.543 113.645 92.6113 113.993 92.6113 114.396ZM97.416 112.648C97.8197 112.74 98.2233 112.811 98.627 112.863C99.0306 112.915 99.4375 112.941 99.8477 112.941C100.277 112.941 100.674 112.902 101.039 112.824C101.41 112.74 101.729 112.603 101.996 112.414C102.27 112.219 102.484 111.962 102.641 111.643C102.797 111.324 102.875 110.926 102.875 110.451C102.875 110.067 102.823 109.715 102.719 109.396C102.615 109.077 102.458 108.804 102.25 108.576C102.048 108.348 101.798 108.173 101.498 108.049C101.199 107.919 100.85 107.854 100.453 107.854C100.082 107.854 99.7467 107.922 99.4473 108.059C99.1543 108.195 98.8939 108.381 98.666 108.615C98.4447 108.843 98.2526 109.11 98.0898 109.416C97.9336 109.722 97.8034 110.041 97.6992 110.373C97.5951 110.705 97.5202 111.04 97.4746 111.379C97.429 111.717 97.4062 112.036 97.4062 112.336C97.4062 112.388 97.4062 112.44 97.4062 112.492C97.4062 112.544 97.4095 112.596 97.416 112.648ZM105.551 110.422C105.551 110.884 105.476 111.298 105.326 111.662C105.176 112.02 104.971 112.336 104.711 112.609C104.457 112.883 104.161 113.114 103.822 113.303C103.484 113.492 103.122 113.648 102.738 113.771C102.354 113.889 101.957 113.973 101.547 114.025C101.143 114.077 100.749 114.104 100.365 114.104C99.877 114.104 99.3952 114.071 98.9199 114.006C98.4447 113.934 97.9759 113.824 97.5137 113.674C97.5853 114.104 97.6992 114.514 97.8555 114.904C98.0117 115.288 98.2201 115.627 98.4805 115.92C98.7409 116.206 99.0599 116.434 99.4375 116.604C99.8216 116.773 100.274 116.857 100.795 116.857C101.14 116.857 101.469 116.805 101.781 116.701C102.094 116.597 102.38 116.451 102.641 116.262C102.901 116.073 103.129 115.848 103.324 115.588C103.526 115.327 103.689 115.038 103.812 114.719L105.238 115.246C105.023 115.76 104.727 116.206 104.35 116.584C103.979 116.955 103.555 117.264 103.08 117.512C102.611 117.753 102.11 117.932 101.576 118.049C101.049 118.166 100.525 118.225 100.004 118.225C99.1445 118.225 98.3503 118.081 97.6211 117.795C96.8919 117.502 96.2637 117.095 95.7363 116.574C95.209 116.053 94.7956 115.432 94.4961 114.709C94.1966 113.986 94.0469 113.195 94.0469 112.336C94.0469 111.477 94.1966 110.686 94.4961 109.963C94.7956 109.24 95.209 108.618 95.7363 108.098C96.2637 107.577 96.8919 107.173 97.6211 106.887C98.3503 106.594 99.1445 106.447 100.004 106.447C100.421 106.447 100.847 106.477 101.283 106.535C101.719 106.594 102.143 106.688 102.553 106.818C102.963 106.942 103.35 107.105 103.715 107.307C104.079 107.508 104.395 107.759 104.662 108.059C104.936 108.352 105.15 108.693 105.307 109.084C105.469 109.475 105.551 109.921 105.551 110.422ZM117.201 107.717L115.346 110.793C115.268 110.533 115.167 110.24 115.043 109.914C114.919 109.589 114.766 109.286 114.584 109.006C114.402 108.719 114.184 108.482 113.93 108.293C113.676 108.098 113.383 108 113.051 108C112.745 108 112.478 108.078 112.25 108.234C112.029 108.391 111.84 108.596 111.684 108.85C111.527 109.097 111.397 109.38 111.293 109.699C111.195 110.012 111.117 110.331 111.059 110.656C111.007 110.975 110.971 111.285 110.951 111.584C110.932 111.877 110.922 112.131 110.922 112.346V118H107.611V106.721H108.881L110.219 109.348C110.401 108.924 110.609 108.537 110.844 108.186C111.078 107.827 111.348 107.521 111.654 107.268C111.96 107.007 112.305 106.805 112.689 106.662C113.08 106.519 113.52 106.447 114.008 106.447C114.262 106.447 114.545 106.47 114.857 106.516C115.17 106.555 115.476 106.626 115.775 106.73C116.075 106.828 116.352 106.958 116.605 107.121C116.859 107.284 117.058 107.482 117.201 107.717ZM128.686 106.721L124.584 116.643C124.115 117.775 123.591 118.895 123.012 120.002C122.439 121.115 121.817 122.183 121.146 123.205L119.857 122.424C120.02 122.131 120.212 121.792 120.434 121.408C120.655 121.024 120.873 120.627 121.088 120.217C121.303 119.807 121.501 119.4 121.684 118.996C121.866 118.599 122.006 118.234 122.104 117.902L117.172 106.721H120.473L123.822 114.348L126.4 106.721H128.686Z" fill="black"/>
<defs>
<clipPath id="clip0_0_407">
<rect width="45" height="45" fill="white" transform="translate(62 46)"/>
</clipPath>
</defs>
</svg>
