<svg width="169" height="170" viewBox="0 0 169 170" fill="none" xmlns="http://www.w3.org/2000/svg">
<rect width="169" height="170" rx="40" fill="#8B56D1"/>
<g clip-path="url(#clip0_0_402)">
<path d="M84.5 46C72.0744 46 62 56.0744 62 68.5C62 78.2931 68.2663 86.6012 77 89.6931V74.125H76.0625C73.4788 74.125 71.375 72.0212 71.375 69.4375V59.125H75.125V69.4375C75.125 69.955 75.545 70.375 76.0625 70.375H77V59.125H80.75V70.375H81.6875C82.205 70.375 82.625 69.955 82.625 69.4375V59.125H86.375V69.4375C86.375 72.0212 84.2712 74.125 81.6875 74.125H80.75V90.6625C81.9725 90.8687 83.2194 91 84.5 91C87.1344 91 89.6506 90.5238 92 89.6931V81.2388C89.1331 77.7494 88.1806 74.1962 88.2537 70.9975C88.4806 65.2281 91.3775 61.1538 93.14 59.5562C94.1431 58.6244 95.7425 59.3275 95.75 60.5069V87.9663C102.468 84.0737 107 76.825 107 68.5019C107 56.0744 96.9256 46 84.5 46Z" fill="black"/>
</g>
<path d="M65.2246 110.949C65.2246 111.633 65.1335 112.284 64.9512 112.902C64.7689 113.514 64.5117 114.081 64.1797 114.602C63.8542 115.122 63.4635 115.594 63.0078 116.018C62.5521 116.434 62.0475 116.789 61.4941 117.082C60.9473 117.375 60.3581 117.603 59.7266 117.766C59.1016 117.922 58.457 118 57.793 118H51.5918V103.938H57.793C58.457 103.938 59.1016 104.016 59.7266 104.172C60.3516 104.328 60.9375 104.553 61.4844 104.846C62.0378 105.132 62.5423 105.484 62.998 105.9C63.4603 106.317 63.8542 106.786 64.1797 107.307C64.5117 107.821 64.7689 108.387 64.9512 109.006C65.1335 109.618 65.2246 110.266 65.2246 110.949ZM61.2891 110.949C61.2891 110.188 61.1947 109.465 61.0059 108.781C60.8236 108.091 60.5371 107.486 60.1465 106.965C59.7559 106.444 59.2578 106.031 58.6523 105.725C58.0534 105.419 57.334 105.266 56.4941 105.266H55.4688V116.633H56.4941C57.321 116.633 58.0339 116.48 58.6328 116.174C59.2383 115.861 59.7363 115.445 60.127 114.924C60.5241 114.396 60.8171 113.791 61.0059 113.107C61.1947 112.424 61.2891 111.704 61.2891 110.949ZM70.6836 103.996C70.6836 104.243 70.6348 104.478 70.5371 104.699C70.446 104.921 70.319 105.113 70.1562 105.275C69.9935 105.438 69.8014 105.568 69.5801 105.666C69.3587 105.757 69.1243 105.803 68.877 105.803C68.6296 105.803 68.3952 105.757 68.1738 105.666C67.959 105.568 67.7702 105.438 67.6074 105.275C67.4447 105.113 67.3145 104.921 67.2168 104.699C67.1257 104.478 67.0801 104.243 67.0801 103.996C67.0801 103.749 67.1257 103.518 67.2168 103.303C67.3145 103.081 67.4447 102.889 67.6074 102.727C67.7702 102.564 67.959 102.437 68.1738 102.346C68.3952 102.248 68.6296 102.199 68.877 102.199C69.1243 102.199 69.3587 102.248 69.5801 102.346C69.8014 102.437 69.9935 102.564 70.1562 102.727C70.319 102.889 70.446 103.081 70.5371 103.303C70.6348 103.518 70.6836 103.749 70.6836 103.996ZM70.5371 118H67.2266V106.73H70.5371V118ZM84.8438 111.535C84.8438 112.297 84.7493 113.091 84.5605 113.918C84.3783 114.745 84.1211 115.555 83.7891 116.35C83.457 117.144 83.0599 117.889 82.5977 118.586C82.1354 119.289 81.6276 119.895 81.0742 120.402L79.834 119.729C80.0098 119.403 80.1758 119.038 80.332 118.635C80.4883 118.231 80.6283 117.805 80.752 117.355C80.8822 116.9 80.9961 116.431 81.0938 115.949C81.1979 115.467 81.2826 114.992 81.3477 114.523C81.4193 114.048 81.4714 113.589 81.5039 113.146C81.543 112.697 81.5625 112.281 81.5625 111.896C81.5625 111.643 81.5527 111.372 81.5332 111.086C81.5137 110.793 81.4714 110.503 81.4062 110.217C81.3477 109.924 81.2663 109.644 81.1621 109.377C81.0579 109.11 80.918 108.876 80.7422 108.674C80.5729 108.472 80.3646 108.309 80.1172 108.186C79.8763 108.062 79.5898 108 79.2578 108C78.9323 108 78.6426 108.075 78.3887 108.225C78.1348 108.368 77.9102 108.56 77.7148 108.801C77.5195 109.035 77.3503 109.305 77.207 109.611C77.0703 109.917 76.9564 110.233 76.8652 110.559C76.7806 110.878 76.7188 111.193 76.6797 111.506C76.6406 111.818 76.6211 112.098 76.6211 112.346V118H73.3105V106.721H74.5801L76.0938 109.348C76.276 108.911 76.5039 108.514 76.7773 108.156C77.0508 107.798 77.36 107.492 77.7051 107.238C78.0501 106.984 78.431 106.789 78.8477 106.652C79.2708 106.516 79.7266 106.447 80.2148 106.447C80.9961 106.447 81.6764 106.574 82.2559 106.828C82.8353 107.082 83.3171 107.437 83.7012 107.893C84.0853 108.342 84.3717 108.879 84.5605 109.504C84.7493 110.122 84.8438 110.799 84.8438 111.535ZM90.4883 103.996C90.4883 104.243 90.4395 104.478 90.3418 104.699C90.2507 104.921 90.1237 105.113 89.9609 105.275C89.7982 105.438 89.6061 105.568 89.3848 105.666C89.1634 105.757 88.929 105.803 88.6816 105.803C88.4342 105.803 88.1999 105.757 87.9785 105.666C87.7637 105.568 87.5749 105.438 87.4121 105.275C87.2493 105.113 87.1191 104.921 87.0215 104.699C86.9303 104.478 86.8848 104.243 86.8848 103.996C86.8848 103.749 86.9303 103.518 87.0215 103.303C87.1191 103.081 87.2493 102.889 87.4121 102.727C87.5749 102.564 87.7637 102.437 87.9785 102.346C88.1999 102.248 88.4342 102.199 88.6816 102.199C88.929 102.199 89.1634 102.248 89.3848 102.346C89.6061 102.437 89.7982 102.564 89.9609 102.727C90.1237 102.889 90.2507 103.081 90.3418 103.303C90.4395 103.518 90.4883 103.749 90.4883 103.996ZM90.3418 118H87.0312V106.73H90.3418V118ZM104.648 111.535C104.648 112.297 104.554 113.091 104.365 113.918C104.183 114.745 103.926 115.555 103.594 116.35C103.262 117.144 102.865 117.889 102.402 118.586C101.94 119.289 101.432 119.895 100.879 120.402L99.6387 119.729C99.8145 119.403 99.9805 119.038 100.137 118.635C100.293 118.231 100.433 117.805 100.557 117.355C100.687 116.9 100.801 116.431 100.898 115.949C101.003 115.467 101.087 114.992 101.152 114.523C101.224 114.048 101.276 113.589 101.309 113.146C101.348 112.697 101.367 112.281 101.367 111.896C101.367 111.643 101.357 111.372 101.338 111.086C101.318 110.793 101.276 110.503 101.211 110.217C101.152 109.924 101.071 109.644 100.967 109.377C100.863 109.11 100.723 108.876 100.547 108.674C100.378 108.472 100.169 108.309 99.9219 108.186C99.681 108.062 99.3945 108 99.0625 108C98.737 108 98.4473 108.075 98.1934 108.225C97.9395 108.368 97.7148 108.56 97.5195 108.801C97.3242 109.035 97.1549 109.305 97.0117 109.611C96.875 109.917 96.7611 110.233 96.6699 110.559C96.5853 110.878 96.5234 111.193 96.4844 111.506C96.4453 111.818 96.4258 112.098 96.4258 112.346V118H93.1152V106.721H94.3848L95.8984 109.348C96.0807 108.911 96.3086 108.514 96.582 108.156C96.8555 107.798 97.1647 107.492 97.5098 107.238C97.8548 106.984 98.2357 106.789 98.6523 106.652C99.0755 106.516 99.5312 106.447 100.02 106.447C100.801 106.447 101.481 106.574 102.061 106.828C102.64 107.082 103.122 107.437 103.506 107.893C103.89 108.342 104.176 108.879 104.365 109.504C104.554 110.122 104.648 110.799 104.648 111.535ZM118.184 116.643C118.184 117.541 118.05 118.387 117.783 119.182C117.516 119.976 117.129 120.669 116.621 121.262C116.113 121.861 115.488 122.333 114.746 122.678C114.01 123.029 113.171 123.205 112.227 123.205C111.706 123.205 111.178 123.146 110.645 123.029C110.117 122.912 109.616 122.73 109.141 122.482C108.672 122.242 108.249 121.932 107.871 121.555C107.5 121.184 107.207 120.744 106.992 120.236L108.418 119.699C108.542 120.018 108.701 120.311 108.896 120.578C109.098 120.845 109.329 121.073 109.59 121.262C109.85 121.457 110.137 121.607 110.449 121.711C110.762 121.822 111.09 121.877 111.436 121.877C112.087 121.877 112.63 121.743 113.066 121.477C113.509 121.21 113.864 120.861 114.131 120.432C114.398 120.002 114.59 119.514 114.707 118.967C114.824 118.426 114.883 117.876 114.883 117.316V116.652C114.492 117.186 114.02 117.583 113.467 117.844C112.92 118.098 112.318 118.225 111.66 118.225C110.801 118.225 110.033 118.072 109.355 117.766C108.678 117.46 108.105 117.043 107.637 116.516C107.168 115.982 106.81 115.357 106.562 114.641C106.315 113.924 106.191 113.156 106.191 112.336C106.191 111.516 106.315 110.747 106.562 110.031C106.81 109.315 107.168 108.693 107.637 108.166C108.105 107.632 108.678 107.212 109.355 106.906C110.033 106.6 110.801 106.447 111.66 106.447C112.096 106.447 112.51 106.512 112.9 106.643C113.298 106.773 113.659 106.958 113.984 107.199C114.316 107.434 114.606 107.72 114.854 108.059C115.107 108.391 115.306 108.762 115.449 109.172L116.914 106.721H118.184V116.643ZM114.863 112.336C114.863 112.043 114.847 111.734 114.814 111.408C114.788 111.083 114.74 110.76 114.668 110.441C114.596 110.122 114.495 109.82 114.365 109.533C114.242 109.24 114.079 108.983 113.877 108.762C113.682 108.534 113.444 108.355 113.164 108.225C112.884 108.094 112.559 108.029 112.188 108.029C111.816 108.029 111.494 108.098 111.221 108.234C110.947 108.365 110.713 108.544 110.518 108.771C110.322 108.993 110.16 109.25 110.029 109.543C109.906 109.836 109.808 110.142 109.736 110.461C109.665 110.78 109.613 111.102 109.58 111.428C109.554 111.747 109.541 112.049 109.541 112.336C109.541 112.622 109.554 112.928 109.58 113.254C109.613 113.579 109.665 113.902 109.736 114.221C109.808 114.54 109.906 114.846 110.029 115.139C110.16 115.432 110.322 115.692 110.518 115.92C110.713 116.141 110.947 116.32 111.221 116.457C111.494 116.587 111.816 116.652 112.188 116.652C112.526 116.652 112.826 116.584 113.086 116.447C113.353 116.304 113.584 116.115 113.779 115.881C113.981 115.646 114.15 115.38 114.287 115.08C114.424 114.781 114.535 114.471 114.619 114.152C114.704 113.833 114.766 113.518 114.805 113.205C114.844 112.886 114.863 112.596 114.863 112.336Z" fill="black"/>
<defs>
<clipPath id="clip0_0_402">
<rect width="45" height="45" fill="white" transform="translate(62 46)"/>
</clipPath>
</defs>
</svg>
