<svg width="193" height="40" viewBox="0 0 193 40" fill="none" xmlns="http://www.w3.org/2000/svg">
<rect width="193" height="40" rx="20" fill="#3DA6B8"/>
<path d="M75.9287 15.4814L74.4258 16.1143C74.3086 15.7334 74.1504 15.3848 73.9512 15.0684C73.7578 14.752 73.5234 14.4824 73.248 14.2598C72.9785 14.0312 72.6709 13.8555 72.3252 13.7324C71.9795 13.6035 71.6016 13.5391 71.1914 13.5391C70.752 13.5391 70.3477 13.6123 69.9785 13.7588C69.6152 13.8994 69.2871 14.0957 68.9941 14.3477C68.707 14.5996 68.4551 14.8926 68.2383 15.2266C68.0215 15.5605 67.8398 15.918 67.6934 16.2988C67.5469 16.6738 67.4385 17.0635 67.3682 17.4678C67.2979 17.8721 67.2627 18.2676 67.2627 18.6543C67.2627 19.2695 67.333 19.8818 67.4736 20.4912C67.6201 21.1006 67.8486 21.6484 68.1592 22.1348C68.4756 22.6211 68.8828 23.0166 69.3809 23.3213C69.8789 23.6201 70.4824 23.7695 71.1914 23.7695C71.5664 23.7695 71.9209 23.708 72.2549 23.585C72.5889 23.4561 72.8906 23.2832 73.1602 23.0664C73.4355 22.8438 73.6758 22.583 73.8809 22.2842C74.0859 21.9854 74.25 21.6631 74.373 21.3174L75.8936 21.9238C75.6709 22.4805 75.3662 22.9697 74.9795 23.3916C74.5928 23.8076 74.1504 24.1533 73.6523 24.4287C73.1602 24.7041 72.6299 24.9092 72.0615 25.0439C71.499 25.1846 70.9307 25.2549 70.3564 25.2549C69.7354 25.2549 69.1377 25.1787 68.5635 25.0264C67.9951 24.874 67.4648 24.6572 66.9727 24.376C66.4805 24.0947 66.0322 23.7549 65.6279 23.3564C65.2295 22.958 64.8867 22.5156 64.5996 22.0293C64.3184 21.543 64.0986 21.0156 63.9404 20.4473C63.7881 19.873 63.7119 19.2754 63.7119 18.6543C63.7119 18.0332 63.7881 17.4385 63.9404 16.8701C64.0986 16.2959 64.3184 15.7656 64.5996 15.2793C64.8867 14.7871 65.2295 14.3418 65.6279 13.9434C66.0322 13.5449 66.4805 13.2051 66.9727 12.9238C67.4648 12.6426 67.9951 12.4258 68.5635 12.2734C69.1377 12.1211 69.7354 12.0449 70.3564 12.0449C70.9541 12.0449 71.5371 12.1152 72.1055 12.2559C72.6797 12.3965 73.2129 12.6104 73.7051 12.8975C74.1973 13.1787 74.6338 13.5361 75.0146 13.9697C75.4014 14.3975 75.7061 14.9014 75.9287 15.4814ZM86.4053 15.7451L84.7354 18.5137C84.665 18.2793 84.5742 18.0156 84.4629 17.7227C84.3516 17.4297 84.2139 17.1572 84.0498 16.9053C83.8857 16.6475 83.6895 16.4336 83.4609 16.2637C83.2324 16.0879 82.9688 16 82.6699 16C82.3945 16 82.1543 16.0703 81.9492 16.2109C81.75 16.3516 81.5801 16.5361 81.4395 16.7646C81.2988 16.9873 81.1816 17.2422 81.0879 17.5293C81 17.8105 80.9297 18.0977 80.877 18.3906C80.8301 18.6777 80.7979 18.9561 80.7803 19.2256C80.7627 19.4893 80.7539 19.7178 80.7539 19.9111V25H77.7744V14.8486H78.917L80.1211 17.2129C80.2852 16.832 80.4727 16.4834 80.6836 16.167C80.8945 15.8447 81.1377 15.5693 81.4131 15.3408C81.6885 15.1064 81.999 14.9248 82.3447 14.7959C82.6963 14.667 83.0918 14.6025 83.5312 14.6025C83.7598 14.6025 84.0146 14.623 84.2959 14.6641C84.5771 14.6992 84.8525 14.7637 85.1221 14.8574C85.3916 14.9453 85.6406 15.0625 85.8691 15.209C86.0977 15.3555 86.2764 15.5342 86.4053 15.7451ZM89.833 20.1836C90.1963 20.2656 90.5596 20.3301 90.9229 20.377C91.2861 20.4238 91.6523 20.4473 92.0215 20.4473C92.4082 20.4473 92.7656 20.4121 93.0938 20.3418C93.4277 20.2656 93.7148 20.1426 93.9551 19.9727C94.2012 19.7969 94.3945 19.5654 94.5352 19.2783C94.6758 18.9912 94.7461 18.6338 94.7461 18.2061C94.7461 17.8604 94.6992 17.5439 94.6055 17.2568C94.5117 16.9697 94.3711 16.7236 94.1836 16.5186C94.002 16.3135 93.7764 16.1553 93.5068 16.0439C93.2373 15.9268 92.9238 15.8682 92.5664 15.8682C92.2324 15.8682 91.9307 15.9297 91.6611 16.0527C91.3975 16.1758 91.1631 16.3428 90.958 16.5537C90.7588 16.7588 90.5859 16.999 90.4395 17.2744C90.2988 17.5498 90.1816 17.8369 90.0879 18.1357C89.9941 18.4346 89.9268 18.7363 89.8857 19.041C89.8447 19.3457 89.8242 19.6328 89.8242 19.9023C89.8242 19.9492 89.8242 19.9961 89.8242 20.043C89.8242 20.0898 89.8271 20.1367 89.833 20.1836ZM97.1543 18.1797C97.1543 18.5957 97.0869 18.9678 96.9521 19.2959C96.8174 19.6182 96.6328 19.9023 96.3984 20.1484C96.1699 20.3945 95.9033 20.6025 95.5986 20.7725C95.2939 20.9424 94.9688 21.083 94.623 21.1943C94.2773 21.2998 93.9199 21.376 93.5508 21.4229C93.1875 21.4697 92.833 21.4932 92.4873 21.4932C92.0479 21.4932 91.6143 21.4639 91.1865 21.4053C90.7588 21.3408 90.3369 21.2412 89.9209 21.1064C89.9854 21.4932 90.0879 21.8623 90.2285 22.2139C90.3691 22.5596 90.5566 22.8643 90.791 23.1279C91.0254 23.3857 91.3125 23.5908 91.6523 23.7432C91.998 23.8955 92.4053 23.9717 92.874 23.9717C93.1846 23.9717 93.4805 23.9248 93.7617 23.8311C94.043 23.7373 94.3008 23.6055 94.5352 23.4355C94.7695 23.2656 94.9746 23.0635 95.1504 22.8291C95.332 22.5947 95.4785 22.334 95.5898 22.0469L96.873 22.5215C96.6797 22.9844 96.4131 23.3857 96.0732 23.7256C95.7393 24.0596 95.3584 24.3379 94.9307 24.5605C94.5088 24.7773 94.0576 24.9385 93.5771 25.0439C93.1025 25.1494 92.6309 25.2021 92.1621 25.2021C91.3887 25.2021 90.6738 25.0732 90.0176 24.8154C89.3613 24.5518 88.7959 24.1855 88.3213 23.7168C87.8467 23.248 87.4746 22.6885 87.2051 22.0381C86.9355 21.3877 86.8008 20.6758 86.8008 19.9023C86.8008 19.1289 86.9355 18.417 87.2051 17.7666C87.4746 17.1162 87.8467 16.5566 88.3213 16.0879C88.7959 15.6191 89.3613 15.2559 90.0176 14.998C90.6738 14.7344 91.3887 14.6025 92.1621 14.6025C92.5371 14.6025 92.9209 14.6289 93.3135 14.6816C93.7061 14.7344 94.0869 14.8193 94.4561 14.9365C94.8252 15.0479 95.1738 15.1943 95.502 15.376C95.8301 15.5576 96.1143 15.7832 96.3545 16.0527C96.6006 16.3164 96.7939 16.624 96.9346 16.9756C97.0811 17.3271 97.1543 17.7285 97.1543 18.1797ZM109.23 25H106.26V23.7871C105.908 24.2676 105.483 24.625 104.985 24.8594C104.493 25.0879 103.951 25.2021 103.359 25.2021C102.586 25.2021 101.895 25.0645 101.285 24.7891C100.676 24.5137 100.16 24.1387 99.7383 23.6641C99.3164 23.1836 98.9941 22.6211 98.7715 21.9766C98.5488 21.332 98.4375 20.6406 98.4375 19.9023C98.4375 19.1641 98.5488 18.4727 98.7715 17.8281C98.9941 17.1836 99.3164 16.624 99.7383 16.1494C100.16 15.6689 100.676 15.291 101.285 15.0156C101.895 14.7402 102.586 14.6025 103.359 14.6025C103.752 14.6025 104.124 14.6611 104.476 14.7783C104.833 14.8955 105.158 15.0625 105.451 15.2793C105.75 15.4902 106.011 15.748 106.233 16.0527C106.462 16.3516 106.641 16.6855 106.77 17.0547L108.088 14.8486H109.23V25ZM106.242 19.9023C106.242 19.6387 106.228 19.3604 106.198 19.0674C106.175 18.7744 106.131 18.4844 106.066 18.1973C106.002 17.9102 105.911 17.6377 105.794 17.3799C105.683 17.1162 105.536 16.8848 105.354 16.6855C105.179 16.4805 104.965 16.3193 104.713 16.2021C104.461 16.085 104.168 16.0264 103.834 16.0264C103.5 16.0264 103.21 16.0879 102.964 16.2109C102.718 16.3281 102.507 16.4893 102.331 16.6943C102.155 16.8936 102.009 17.125 101.892 17.3887C101.78 17.6523 101.692 17.9277 101.628 18.2148C101.563 18.502 101.517 18.792 101.487 19.085C101.464 19.3721 101.452 19.6445 101.452 19.9023C101.452 20.1602 101.464 20.4355 101.487 20.7285C101.517 21.0215 101.563 21.3115 101.628 21.5986C101.692 21.8857 101.78 22.1611 101.892 22.4248C102.009 22.6885 102.155 22.9229 102.331 23.1279C102.507 23.3271 102.718 23.4883 102.964 23.6113C103.21 23.7285 103.5 23.7871 103.834 23.7871C104.139 23.7871 104.408 23.7256 104.643 23.6025C104.883 23.4736 105.091 23.3037 105.267 23.0928C105.448 22.8818 105.601 22.6416 105.724 22.3721C105.847 22.1025 105.946 21.8242 106.022 21.5371C106.099 21.25 106.154 20.9658 106.189 20.6846C106.225 20.3975 106.242 20.1367 106.242 19.9023ZM115.541 25H112.562V16.0264H110.716V14.8486H112.562V11.1133H115.541V14.8486H118.617V16.0264H115.541V25ZM121.983 20.1836C122.347 20.2656 122.71 20.3301 123.073 20.377C123.437 20.4238 123.803 20.4473 124.172 20.4473C124.559 20.4473 124.916 20.4121 125.244 20.3418C125.578 20.2656 125.865 20.1426 126.105 19.9727C126.352 19.7969 126.545 19.5654 126.686 19.2783C126.826 18.9912 126.896 18.6338 126.896 18.2061C126.896 17.8604 126.85 17.5439 126.756 17.2568C126.662 16.9697 126.521 16.7236 126.334 16.5186C126.152 16.3135 125.927 16.1553 125.657 16.0439C125.388 15.9268 125.074 15.8682 124.717 15.8682C124.383 15.8682 124.081 15.9297 123.812 16.0527C123.548 16.1758 123.313 16.3428 123.108 16.5537C122.909 16.7588 122.736 16.999 122.59 17.2744C122.449 17.5498 122.332 17.8369 122.238 18.1357C122.145 18.4346 122.077 18.7363 122.036 19.041C121.995 19.3457 121.975 19.6328 121.975 19.9023C121.975 19.9492 121.975 19.9961 121.975 20.043C121.975 20.0898 121.978 20.1367 121.983 20.1836ZM129.305 18.1797C129.305 18.5957 129.237 18.9678 129.103 19.2959C128.968 19.6182 128.783 19.9023 128.549 20.1484C128.32 20.3945 128.054 20.6025 127.749 20.7725C127.444 20.9424 127.119 21.083 126.773 21.1943C126.428 21.2998 126.07 21.376 125.701 21.4229C125.338 21.4697 124.983 21.4932 124.638 21.4932C124.198 21.4932 123.765 21.4639 123.337 21.4053C122.909 21.3408 122.487 21.2412 122.071 21.1064C122.136 21.4932 122.238 21.8623 122.379 22.2139C122.52 22.5596 122.707 22.8643 122.941 23.1279C123.176 23.3857 123.463 23.5908 123.803 23.7432C124.148 23.8955 124.556 23.9717 125.024 23.9717C125.335 23.9717 125.631 23.9248 125.912 23.8311C126.193 23.7373 126.451 23.6055 126.686 23.4355C126.92 23.2656 127.125 23.0635 127.301 22.8291C127.482 22.5947 127.629 22.334 127.74 22.0469L129.023 22.5215C128.83 22.9844 128.563 23.3857 128.224 23.7256C127.89 24.0596 127.509 24.3379 127.081 24.5605C126.659 24.7773 126.208 24.9385 125.728 25.0439C125.253 25.1494 124.781 25.2021 124.312 25.2021C123.539 25.2021 122.824 25.0732 122.168 24.8154C121.512 24.5518 120.946 24.1855 120.472 23.7168C119.997 23.248 119.625 22.6885 119.355 22.0381C119.086 21.3877 118.951 20.6758 118.951 19.9023C118.951 19.1289 119.086 18.417 119.355 17.7666C119.625 17.1162 119.997 16.5566 120.472 16.0879C120.946 15.6191 121.512 15.2559 122.168 14.998C122.824 14.7344 123.539 14.6025 124.312 14.6025C124.688 14.6025 125.071 14.6289 125.464 14.6816C125.856 14.7344 126.237 14.8193 126.606 14.9365C126.976 15.0479 127.324 15.1943 127.652 15.376C127.98 15.5576 128.265 15.7832 128.505 16.0527C128.751 16.3164 128.944 16.624 129.085 16.9756C129.231 17.3271 129.305 17.7285 129.305 18.1797Z" fill="white"/>
</svg>
