<svg width="221" height="187" viewBox="0 0 221 187" fill="none" xmlns="http://www.w3.org/2000/svg">
<ellipse opacity="0.9" cx="96.5126" cy="106.25" rx="76.9303" ry="77.9167" fill="#4C84FF"/>
<ellipse opacity="0.9" cx="207.012" cy="90.6667" rx="13.9874" ry="14.1667" fill="#4477E5"/>
<ellipse opacity="0.9" cx="132.88" cy="80.75" rx="48.9557" ry="49.5833" fill="#F9B45C"/>
<ellipse opacity="0.9" cx="26.576" cy="179.917" rx="6.99368" ry="7.08333" fill="#F9B45C"/>
<ellipse opacity="0.9" cx="67.1391" cy="90.6667" rx="55.9494" ry="56.6667" fill="#7F44CD"/>
<ellipse opacity="0.9" cx="5.59493" cy="121.833" rx="5.59493" ry="5.66667" fill="#7F44CD"/>
<ellipse opacity="0.9" cx="120.291" cy="141.667" rx="41.962" ry="42.5" fill="#FC727F" fill-opacity="0.9"/>
<ellipse opacity="0.9" cx="109.101" cy="11.3333" rx="11.1899" ry="11.3333" fill="#FC727F" fill-opacity="0.9"/>
<ellipse opacity="0.9" cx="186.032" cy="114.75" rx="4.1962" ry="4.25" fill="#FC727F" fill-opacity="0.9"/>
<path d="M70.8923 96.5L96.0695 76.6667L121.247 96.5V127.667C121.247 129.17 120.657 130.611 119.608 131.674C118.559 132.736 117.136 133.333 115.652 133.333H76.4873C75.0034 133.333 73.5803 132.736 72.5311 131.674C71.4818 130.611 70.8923 129.17 70.8923 127.667V96.5Z" stroke="black" stroke-width="5" stroke-linecap="round" stroke-linejoin="round"/>
<path d="M87.6772 133.333V105H104.462V133.333" stroke="black" stroke-width="5" stroke-linecap="round" stroke-linejoin="round"/>
</svg>
