<svg width="169" height="170" viewBox="0 0 169 170" fill="none" xmlns="http://www.w3.org/2000/svg">
<rect width="169" height="170" rx="40" fill="#5D90FE"/>
<g clip-path="url(#clip0_0_372)">
<path d="M107 81.625V91H90.125V81.625H107ZM90.125 77.875H107V68.5H86.375V64.75H97.625V49.75C97.625 47.6819 95.9431 46 93.875 46H75.125C73.0569 46 71.375 47.6819 71.375 49.75V64.75H82.625V68.5H62V72.25H65.75V91H69.5V72.25H90.125V77.875Z" fill="black"/>
</g>
<path d="M33.1152 113.703C33.1152 114.309 33.0371 114.842 32.8809 115.305C32.7311 115.767 32.5163 116.167 32.2363 116.506C31.9629 116.844 31.6374 117.128 31.2598 117.355C30.8822 117.583 30.4688 117.766 30.0195 117.902C29.5768 118.039 29.1048 118.137 28.6035 118.195C28.1087 118.254 27.6042 118.283 27.0898 118.283C26.4128 118.283 25.7878 118.231 25.2148 118.127C24.6419 118.029 24.1016 117.873 23.5938 117.658C23.0924 117.437 22.6074 117.154 22.1387 116.809C21.6764 116.464 21.2142 116.044 20.752 115.549L22.7441 113.527C22.9264 113.977 23.1771 114.393 23.4961 114.777C23.8151 115.155 24.1634 115.48 24.541 115.754C24.9251 116.027 25.3223 116.242 25.7324 116.398C26.1426 116.555 26.5299 116.633 26.8945 116.633C27.3242 116.633 27.7279 116.604 28.1055 116.545C28.4831 116.48 28.8118 116.376 29.0918 116.232C29.3717 116.089 29.5898 115.9 29.7461 115.666C29.9089 115.425 29.9902 115.126 29.9902 114.768C29.9902 114.494 29.9284 114.26 29.8047 114.064C29.681 113.869 29.5182 113.703 29.3164 113.566C29.1211 113.423 28.8965 113.303 28.6426 113.205C28.3887 113.107 28.1283 113.026 27.8613 112.961C27.6009 112.889 27.3438 112.827 27.0898 112.775C26.8359 112.717 26.6113 112.658 26.416 112.6C26.0319 112.489 25.6315 112.372 25.2148 112.248C24.7982 112.118 24.388 111.971 23.9844 111.809C23.5807 111.646 23.1966 111.46 22.832 111.252C22.474 111.037 22.1582 110.786 21.8848 110.5C21.6113 110.207 21.3932 109.872 21.2305 109.494C21.0677 109.11 20.9863 108.671 20.9863 108.176C20.9863 107.583 21.0579 107.059 21.2012 106.604C21.3509 106.141 21.5592 105.741 21.8262 105.402C22.0931 105.064 22.4089 104.781 22.7734 104.553C23.138 104.318 23.5384 104.133 23.9746 103.996C24.4108 103.853 24.873 103.752 25.3613 103.693C25.8561 103.628 26.3607 103.596 26.875 103.596C27.5781 103.596 28.2161 103.661 28.7891 103.791C29.3685 103.921 29.9023 104.107 30.3906 104.348C30.8789 104.589 31.3249 104.878 31.7285 105.217C32.1387 105.549 32.5228 105.92 32.8809 106.33L30.8887 108.352C30.7324 107.883 30.5143 107.46 30.2344 107.082C29.9609 106.704 29.6549 106.382 29.3164 106.115C28.9779 105.842 28.623 105.633 28.252 105.49C27.8809 105.34 27.5228 105.266 27.1777 105.266C26.7285 105.266 26.3151 105.298 25.9375 105.363C25.5599 105.422 25.2344 105.523 24.9609 105.666C24.694 105.803 24.4857 105.992 24.3359 106.232C24.1862 106.467 24.1113 106.76 24.1113 107.111C24.1113 107.391 24.1667 107.629 24.2773 107.824C24.388 108.02 24.5345 108.186 24.7168 108.322C24.9056 108.459 25.1172 108.573 25.3516 108.664C25.5859 108.749 25.8268 108.824 26.0742 108.889C26.3281 108.954 26.5755 109.012 26.8164 109.064C27.0638 109.11 27.2884 109.162 27.4902 109.221C27.8809 109.331 28.291 109.449 28.7207 109.572C29.1504 109.696 29.5736 109.842 29.9902 110.012C30.4069 110.174 30.804 110.363 31.1816 110.578C31.5592 110.793 31.8913 111.05 32.1777 111.35C32.4642 111.643 32.6921 111.984 32.8613 112.375C33.0306 112.759 33.1152 113.202 33.1152 113.703ZM39.4141 118H36.1035V108.029H34.0527V106.721H36.1035V102.57H39.4141V106.721H42.832V108.029H39.4141V118ZM43.5156 113.176C43.5156 112.661 43.5579 112.128 43.6426 111.574C43.7337 111.021 43.8607 110.467 44.0234 109.914C44.1927 109.361 44.3945 108.814 44.6289 108.273C44.8633 107.733 45.127 107.215 45.4199 106.721H47.832C47.6693 107.209 47.5228 107.72 47.3926 108.254C47.2689 108.781 47.1615 109.312 47.0703 109.846C46.9857 110.373 46.9173 110.891 46.8652 111.398C46.8197 111.906 46.7969 112.378 46.7969 112.814C46.7969 113.068 46.8066 113.342 46.8262 113.635C46.8522 113.921 46.8945 114.211 46.9531 114.504C47.0117 114.79 47.0931 115.067 47.1973 115.334C47.3079 115.601 47.4479 115.839 47.6172 116.047C47.7865 116.249 47.9915 116.411 48.2324 116.535C48.4798 116.652 48.7695 116.711 49.1016 116.711C49.4271 116.711 49.7168 116.639 49.9707 116.496C50.2311 116.346 50.459 116.154 50.6543 115.92C50.8496 115.679 51.0156 115.406 51.1523 115.1C51.2891 114.794 51.3997 114.481 51.4844 114.162C51.5755 113.837 51.6406 113.521 51.6797 113.215C51.7253 112.902 51.748 112.622 51.748 112.375V106.721H55.0488V118H53.7793L52.2656 115.373C52.0768 115.809 51.8457 116.206 51.5723 116.564C51.3053 116.916 50.9993 117.219 50.6543 117.473C50.3092 117.727 49.9251 117.922 49.502 118.059C49.0853 118.195 48.6328 118.264 48.1445 118.264C47.3633 118.264 46.6829 118.137 46.1035 117.883C45.5241 117.629 45.0423 117.277 44.6582 116.828C44.2741 116.379 43.9876 115.845 43.7988 115.227C43.61 114.602 43.5156 113.918 43.5156 113.176ZM69.1699 118H67.9004L66.4355 115.549C66.2923 115.959 66.0938 116.33 65.8398 116.662C65.5924 116.994 65.3027 117.281 64.9707 117.521C64.6452 117.756 64.2839 117.938 63.8867 118.068C63.4961 118.199 63.0827 118.264 62.6465 118.264C61.7871 118.264 61.0189 118.111 60.3418 117.805C59.6647 117.499 59.0918 117.082 58.623 116.555C58.1543 116.021 57.7962 115.396 57.5488 114.68C57.3014 113.964 57.1777 113.195 57.1777 112.375C57.1777 111.555 57.3014 110.786 57.5488 110.07C57.7962 109.354 58.1543 108.732 58.623 108.205C59.0918 107.678 59.6647 107.261 60.3418 106.955C61.0189 106.649 61.7871 106.496 62.6465 106.496C63.304 106.496 63.9062 106.623 64.4531 106.877C65.0065 107.131 65.4785 107.528 65.8691 108.068V102.57H69.1699V118ZM65.8496 112.375C65.8496 112.115 65.8301 111.828 65.791 111.516C65.752 111.203 65.6901 110.887 65.6055 110.568C65.5208 110.249 65.4102 109.94 65.2734 109.641C65.1367 109.341 64.9674 109.074 64.7656 108.84C64.5703 108.605 64.3392 108.42 64.0723 108.283C63.8118 108.14 63.5124 108.068 63.1738 108.068C62.8027 108.068 62.4805 108.137 62.207 108.273C61.9336 108.404 61.6992 108.583 61.5039 108.811C61.3086 109.032 61.1458 109.289 61.0156 109.582C60.8919 109.875 60.7943 110.181 60.7227 110.5C60.651 110.819 60.599 111.141 60.5664 111.467C60.5404 111.786 60.5273 112.089 60.5273 112.375C60.5273 112.661 60.5404 112.967 60.5664 113.293C60.599 113.612 60.651 113.931 60.7227 114.25C60.7943 114.569 60.8919 114.878 61.0156 115.178C61.1458 115.471 61.3086 115.731 61.5039 115.959C61.6992 116.18 61.9336 116.359 62.207 116.496C62.4805 116.626 62.8027 116.691 63.1738 116.691C63.5449 116.691 63.8704 116.626 64.1504 116.496C64.4303 116.366 64.668 116.19 64.8633 115.969C65.0651 115.741 65.2279 115.484 65.3516 115.197C65.4818 114.904 65.5827 114.598 65.6543 114.279C65.7259 113.954 65.7747 113.628 65.8008 113.303C65.8333 112.977 65.8496 112.668 65.8496 112.375ZM82.0215 106.721L77.9199 116.643C77.4512 117.775 76.9271 118.895 76.3477 120.002C75.7747 121.115 75.153 122.183 74.4824 123.205L73.1934 122.424C73.3561 122.131 73.5482 121.792 73.7695 121.408C73.9909 121.024 74.209 120.627 74.4238 120.217C74.6387 119.807 74.8372 119.4 75.0195 118.996C75.2018 118.599 75.3418 118.234 75.4395 117.902L70.5078 106.721H73.8086L77.1582 114.348L79.7363 106.721H82.0215ZM93.1641 118H89.2871V103.938H96.2012C96.8522 103.938 97.4805 104.016 98.0859 104.172C98.6914 104.322 99.2253 104.562 99.6875 104.895C100.156 105.22 100.527 105.643 100.801 106.164C101.081 106.685 101.221 107.316 101.221 108.059C101.221 108.638 101.097 109.185 100.85 109.699C100.609 110.207 100.283 110.663 99.873 111.066C99.4694 111.464 99.0039 111.796 98.4766 112.062C97.9492 112.323 97.4023 112.495 96.8359 112.58C97.0898 113.01 97.3535 113.417 97.627 113.801C97.9069 114.185 98.1868 114.546 98.4668 114.885C98.7533 115.217 99.0365 115.526 99.3164 115.812C99.5964 116.092 99.8633 116.35 100.117 116.584C100.716 117.131 101.309 117.603 101.895 118H97.0605C96.6699 117.629 96.2988 117.183 95.9473 116.662C95.6478 116.219 95.3451 115.673 95.0391 115.021C94.7396 114.364 94.5085 113.605 94.3457 112.746H93.1641V118ZM97.2852 108.059C97.2852 107.115 97.054 106.421 96.5918 105.979C96.1361 105.536 95.4492 105.314 94.5312 105.314H93.1641V111.418H94.5312C95.0195 111.418 95.4362 111.327 95.7812 111.145C96.1328 110.956 96.4193 110.708 96.6406 110.402C96.862 110.09 97.0247 109.732 97.1289 109.328C97.2331 108.924 97.2852 108.501 97.2852 108.059ZM115.01 112.336C115.01 112.922 114.932 113.472 114.775 113.986C114.619 114.501 114.401 114.976 114.121 115.412C113.848 115.848 113.516 116.242 113.125 116.594C112.734 116.939 112.305 117.232 111.836 117.473C111.374 117.714 110.876 117.899 110.342 118.029C109.814 118.16 109.271 118.225 108.711 118.225C108.151 118.225 107.607 118.16 107.08 118.029C106.553 117.899 106.055 117.714 105.586 117.473C105.124 117.232 104.697 116.939 104.307 116.594C103.916 116.242 103.581 115.848 103.301 115.412C103.027 114.976 102.812 114.501 102.656 113.986C102.5 113.465 102.422 112.915 102.422 112.336C102.422 111.757 102.5 111.21 102.656 110.695C102.812 110.174 103.027 109.696 103.301 109.26C103.581 108.824 103.916 108.433 104.307 108.088C104.697 107.736 105.124 107.44 105.586 107.199C106.055 106.958 106.553 106.773 107.08 106.643C107.607 106.512 108.151 106.447 108.711 106.447C109.271 106.447 109.814 106.512 110.342 106.643C110.876 106.773 111.374 106.958 111.836 107.199C112.305 107.44 112.734 107.736 113.125 108.088C113.516 108.433 113.848 108.824 114.121 109.26C114.401 109.696 114.619 110.174 114.775 110.695C114.932 111.21 115.01 111.757 115.01 112.336ZM111.65 112.336C111.65 112.023 111.631 111.695 111.592 111.35C111.559 110.998 111.501 110.656 111.416 110.324C111.331 109.986 111.214 109.663 111.064 109.357C110.921 109.045 110.742 108.775 110.527 108.547C110.312 108.312 110.055 108.127 109.756 107.99C109.456 107.847 109.108 107.775 108.711 107.775C108.333 107.775 107.998 107.847 107.705 107.99C107.412 108.133 107.155 108.326 106.934 108.566C106.719 108.801 106.536 109.074 106.387 109.387C106.243 109.699 106.126 110.025 106.035 110.363C105.944 110.695 105.879 111.034 105.84 111.379C105.801 111.717 105.781 112.036 105.781 112.336C105.781 112.635 105.801 112.958 105.84 113.303C105.879 113.641 105.944 113.98 106.035 114.318C106.126 114.657 106.243 114.982 106.387 115.295C106.536 115.601 106.719 115.874 106.934 116.115C107.155 116.35 107.412 116.538 107.705 116.682C107.998 116.825 108.333 116.896 108.711 116.896C109.102 116.896 109.447 116.828 109.746 116.691C110.046 116.548 110.303 116.359 110.518 116.125C110.739 115.891 110.921 115.62 111.064 115.314C111.208 115.008 111.322 114.686 111.406 114.348C111.497 114.009 111.559 113.667 111.592 113.322C111.631 112.977 111.65 112.648 111.65 112.336ZM129.014 112.336C129.014 112.922 128.936 113.472 128.779 113.986C128.623 114.501 128.405 114.976 128.125 115.412C127.852 115.848 127.52 116.242 127.129 116.594C126.738 116.939 126.309 117.232 125.84 117.473C125.378 117.714 124.88 117.899 124.346 118.029C123.818 118.16 123.275 118.225 122.715 118.225C122.155 118.225 121.611 118.16 121.084 118.029C120.557 117.899 120.059 117.714 119.59 117.473C119.128 117.232 118.701 116.939 118.311 116.594C117.92 116.242 117.585 115.848 117.305 115.412C117.031 114.976 116.816 114.501 116.66 113.986C116.504 113.465 116.426 112.915 116.426 112.336C116.426 111.757 116.504 111.21 116.66 110.695C116.816 110.174 117.031 109.696 117.305 109.26C117.585 108.824 117.92 108.433 118.311 108.088C118.701 107.736 119.128 107.44 119.59 107.199C120.059 106.958 120.557 106.773 121.084 106.643C121.611 106.512 122.155 106.447 122.715 106.447C123.275 106.447 123.818 106.512 124.346 106.643C124.88 106.773 125.378 106.958 125.84 107.199C126.309 107.44 126.738 107.736 127.129 108.088C127.52 108.433 127.852 108.824 128.125 109.26C128.405 109.696 128.623 110.174 128.779 110.695C128.936 111.21 129.014 111.757 129.014 112.336ZM125.654 112.336C125.654 112.023 125.635 111.695 125.596 111.35C125.563 110.998 125.505 110.656 125.42 110.324C125.335 109.986 125.218 109.663 125.068 109.357C124.925 109.045 124.746 108.775 124.531 108.547C124.316 108.312 124.059 108.127 123.76 107.99C123.46 107.847 123.112 107.775 122.715 107.775C122.337 107.775 122.002 107.847 121.709 107.99C121.416 108.133 121.159 108.326 120.938 108.566C120.723 108.801 120.54 109.074 120.391 109.387C120.247 109.699 120.13 110.025 120.039 110.363C119.948 110.695 119.883 111.034 119.844 111.379C119.805 111.717 119.785 112.036 119.785 112.336C119.785 112.635 119.805 112.958 119.844 113.303C119.883 113.641 119.948 113.98 120.039 114.318C120.13 114.657 120.247 114.982 120.391 115.295C120.54 115.601 120.723 115.874 120.938 116.115C121.159 116.35 121.416 116.538 121.709 116.682C122.002 116.825 122.337 116.896 122.715 116.896C123.105 116.896 123.451 116.828 123.75 116.691C124.049 116.548 124.307 116.359 124.521 116.125C124.743 115.891 124.925 115.62 125.068 115.314C125.212 115.008 125.326 114.686 125.41 114.348C125.501 114.009 125.563 113.667 125.596 113.322C125.635 112.977 125.654 112.648 125.654 112.336ZM148.555 111.418C148.555 112.193 148.464 113 148.281 113.84C148.099 114.68 147.842 115.5 147.51 116.301C147.184 117.095 146.79 117.847 146.328 118.557C145.866 119.266 145.352 119.882 144.785 120.402L143.545 119.729C143.734 119.39 143.906 119.009 144.062 118.586C144.219 118.163 144.362 117.717 144.492 117.248C144.622 116.779 144.736 116.298 144.834 115.803C144.932 115.308 145.013 114.816 145.078 114.328C145.15 113.833 145.202 113.355 145.234 112.893C145.267 112.43 145.283 111.997 145.283 111.594C145.283 111.366 145.277 111.118 145.264 110.852C145.251 110.585 145.221 110.318 145.176 110.051C145.137 109.784 145.075 109.53 144.99 109.289C144.906 109.042 144.788 108.824 144.639 108.635C144.495 108.439 144.313 108.286 144.092 108.176C143.877 108.059 143.617 108 143.311 108C143.011 108 142.754 108.081 142.539 108.244C142.331 108.4 142.152 108.605 142.002 108.859C141.852 109.113 141.732 109.4 141.641 109.719C141.556 110.038 141.491 110.36 141.445 110.686C141.4 111.005 141.367 111.311 141.348 111.604C141.335 111.896 141.328 112.144 141.328 112.346V118H138.037V112.746C138.037 112.518 138.04 112.245 138.047 111.926C138.053 111.6 138.044 111.262 138.018 110.91C137.998 110.559 137.956 110.21 137.891 109.865C137.832 109.514 137.734 109.201 137.598 108.928C137.467 108.654 137.288 108.433 137.061 108.264C136.833 108.088 136.546 108 136.201 108C135.908 108 135.661 108.081 135.459 108.244C135.264 108.407 135.098 108.618 134.961 108.879C134.831 109.133 134.727 109.423 134.648 109.748C134.577 110.067 134.521 110.389 134.482 110.715C134.45 111.034 134.43 111.34 134.424 111.633C134.417 111.919 134.414 112.157 134.414 112.346V118H131.104V106.721H132.373L133.584 109.348C133.857 108.436 134.287 107.727 134.873 107.219C135.465 106.704 136.25 106.447 137.227 106.447C138.105 106.447 138.835 106.63 139.414 106.994C139.993 107.359 140.449 107.951 140.781 108.771C140.97 108.413 141.178 108.091 141.406 107.805C141.641 107.518 141.898 107.274 142.178 107.072C142.464 106.87 142.78 106.717 143.125 106.613C143.47 106.503 143.851 106.447 144.268 106.447C145.036 106.447 145.69 106.574 146.23 106.828C146.777 107.076 147.223 107.421 147.568 107.863C147.913 108.306 148.164 108.833 148.32 109.445C148.477 110.051 148.555 110.708 148.555 111.418Z" fill="black"/>
<defs>
<clipPath id="clip0_0_372">
<rect width="45" height="45" fill="white" transform="translate(62 46)"/>
</clipPath>
</defs>
</svg>
