<svg width="169" height="170" viewBox="0 0 169 170" fill="none" xmlns="http://www.w3.org/2000/svg">
<rect width="169" height="170" rx="40" fill="#5D90FE"/>
<path d="M103.25 63.1975V59.125C103.25 52.9206 98.2044 47.875 92 47.875H77C70.7956 47.875 65.75 52.9206 65.75 59.125V63.1975C63.5675 63.9719 62 66.055 62 68.5V76C62 79.06 63.4737 81.7825 65.75 83.4944V83.5V87.25C65.75 88.285 66.59 89.125 67.625 89.125C68.66 89.125 69.5 88.285 69.5 87.25V85.1856C70.1056 85.3094 70.7338 85.375 71.375 85.375H97.625C98.2663 85.375 98.8944 85.3094 99.5 85.1856V87.25C99.5 88.285 100.34 89.125 101.375 89.125C102.41 89.125 103.25 88.285 103.25 87.25V83.5V83.4944C105.526 81.7825 107 79.06 107 76V68.5C107 66.055 105.432 63.9719 103.25 63.1975ZM77 51.625H92C96.1362 51.625 99.5 54.9887 99.5 59.125V63.1975C97.3175 63.9719 95.75 66.055 95.75 68.5V72.25H73.25V68.5C73.25 66.055 71.6825 63.9719 69.5 63.1975V59.125C69.5 54.9887 72.8637 51.625 77 51.625ZM103.25 76C103.25 79.1012 100.726 81.625 97.625 81.625H71.375C68.2737 81.625 65.75 79.1012 65.75 76V68.5C65.75 67.4669 66.5919 66.625 67.625 66.625C68.6581 66.625 69.5 67.4669 69.5 68.5V74.125C69.5 75.16 70.34 76 71.375 76H97.625C98.66 76 99.5 75.16 99.5 74.125V68.5C99.5 67.4669 100.342 66.625 101.375 66.625C102.408 66.625 103.25 67.4669 103.25 68.5V76Z" fill="black"/>
<path d="M30.6895 118H20.5918V103.938H24.4688V116.213H30.6895V118ZM35.7773 103.996C35.7773 104.243 35.7285 104.478 35.6309 104.699C35.5397 104.921 35.4128 105.113 35.25 105.275C35.0872 105.438 34.8952 105.568 34.6738 105.666C34.4525 105.757 34.2181 105.803 33.9707 105.803C33.7233 105.803 33.4889 105.757 33.2676 105.666C33.0527 105.568 32.8639 105.438 32.7012 105.275C32.5384 105.113 32.4082 104.921 32.3105 104.699C32.2194 104.478 32.1738 104.243 32.1738 103.996C32.1738 103.749 32.2194 103.518 32.3105 103.303C32.4082 103.081 32.5384 102.889 32.7012 102.727C32.8639 102.564 33.0527 102.437 33.2676 102.346C33.4889 102.248 33.7233 102.199 33.9707 102.199C34.2181 102.199 34.4525 102.248 34.6738 102.346C34.8952 102.437 35.0872 102.564 35.25 102.727C35.4128 102.889 35.5397 103.081 35.6309 103.303C35.7285 103.518 35.7773 103.749 35.7773 103.996ZM35.6309 118H32.3203V106.73H35.6309V118ZM44.2051 118H41.2363L37.1348 106.721H40.4355L43.4434 115.705L46.3633 106.721H48.6484L44.2051 118ZM53.5117 103.996C53.5117 104.243 53.4629 104.478 53.3652 104.699C53.2741 104.921 53.1471 105.113 52.9844 105.275C52.8216 105.438 52.6296 105.568 52.4082 105.666C52.1868 105.757 51.9525 105.803 51.7051 105.803C51.4577 105.803 51.2233 105.757 51.002 105.666C50.7871 105.568 50.5983 105.438 50.4355 105.275C50.2728 105.113 50.1426 104.921 50.0449 104.699C49.9538 104.478 49.9082 104.243 49.9082 103.996C49.9082 103.749 49.9538 103.518 50.0449 103.303C50.1426 103.081 50.2728 102.889 50.4355 102.727C50.5983 102.564 50.7871 102.437 51.002 102.346C51.2233 102.248 51.4577 102.199 51.7051 102.199C51.9525 102.199 52.1868 102.248 52.4082 102.346C52.6296 102.437 52.8216 102.564 52.9844 102.727C53.1471 102.889 53.2741 103.081 53.3652 103.303C53.4629 103.518 53.5117 103.749 53.5117 103.996ZM53.3652 118H50.0547V106.73H53.3652V118ZM67.6719 111.535C67.6719 112.297 67.5775 113.091 67.3887 113.918C67.2064 114.745 66.9492 115.555 66.6172 116.35C66.2852 117.144 65.888 117.889 65.4258 118.586C64.9635 119.289 64.4557 119.895 63.9023 120.402L62.6621 119.729C62.8379 119.403 63.0039 119.038 63.1602 118.635C63.3164 118.231 63.4564 117.805 63.5801 117.355C63.7103 116.9 63.8242 116.431 63.9219 115.949C64.026 115.467 64.1107 114.992 64.1758 114.523C64.2474 114.048 64.2995 113.589 64.332 113.146C64.3711 112.697 64.3906 112.281 64.3906 111.896C64.3906 111.643 64.3809 111.372 64.3613 111.086C64.3418 110.793 64.2995 110.503 64.2344 110.217C64.1758 109.924 64.0944 109.644 63.9902 109.377C63.8861 109.11 63.7461 108.876 63.5703 108.674C63.401 108.472 63.1927 108.309 62.9453 108.186C62.7044 108.062 62.418 108 62.0859 108C61.7604 108 61.4707 108.075 61.2168 108.225C60.9629 108.368 60.7383 108.56 60.543 108.801C60.3477 109.035 60.1784 109.305 60.0352 109.611C59.8984 109.917 59.7845 110.233 59.6934 110.559C59.6087 110.878 59.5469 111.193 59.5078 111.506C59.4688 111.818 59.4492 112.098 59.4492 112.346V118H56.1387V106.721H57.4082L58.9219 109.348C59.1042 108.911 59.332 108.514 59.6055 108.156C59.8789 107.798 60.1882 107.492 60.5332 107.238C60.8783 106.984 61.2591 106.789 61.6758 106.652C62.099 106.516 62.5547 106.447 63.043 106.447C63.8242 106.447 64.5046 106.574 65.084 106.828C65.6634 107.082 66.1452 107.437 66.5293 107.893C66.9134 108.342 67.1999 108.879 67.3887 109.504C67.5775 110.122 67.6719 110.799 67.6719 111.535ZM81.207 116.643C81.207 117.541 81.0736 118.387 80.8066 119.182C80.5397 119.976 80.1523 120.669 79.6445 121.262C79.1367 121.861 78.5117 122.333 77.7695 122.678C77.0339 123.029 76.194 123.205 75.25 123.205C74.7292 123.205 74.2018 123.146 73.668 123.029C73.1406 122.912 72.6393 122.73 72.1641 122.482C71.6953 122.242 71.2721 121.932 70.8945 121.555C70.5234 121.184 70.2305 120.744 70.0156 120.236L71.4414 119.699C71.5651 120.018 71.7246 120.311 71.9199 120.578C72.1217 120.845 72.3529 121.073 72.6133 121.262C72.8737 121.457 73.1602 121.607 73.4727 121.711C73.7852 121.822 74.1139 121.877 74.459 121.877C75.11 121.877 75.6536 121.743 76.0898 121.477C76.5326 121.21 76.8874 120.861 77.1543 120.432C77.4212 120.002 77.6133 119.514 77.7305 118.967C77.8477 118.426 77.9062 117.876 77.9062 117.316V116.652C77.5156 117.186 77.0436 117.583 76.4902 117.844C75.9434 118.098 75.3411 118.225 74.6836 118.225C73.8242 118.225 73.056 118.072 72.3789 117.766C71.7018 117.46 71.1289 117.043 70.6602 116.516C70.1914 115.982 69.8333 115.357 69.5859 114.641C69.3385 113.924 69.2148 113.156 69.2148 112.336C69.2148 111.516 69.3385 110.747 69.5859 110.031C69.8333 109.315 70.1914 108.693 70.6602 108.166C71.1289 107.632 71.7018 107.212 72.3789 106.906C73.056 106.6 73.8242 106.447 74.6836 106.447C75.1198 106.447 75.5332 106.512 75.9238 106.643C76.321 106.773 76.6823 106.958 77.0078 107.199C77.3398 107.434 77.6296 107.72 77.877 108.059C78.1309 108.391 78.3294 108.762 78.4727 109.172L79.9375 106.721H81.207V116.643ZM77.8867 112.336C77.8867 112.043 77.8704 111.734 77.8379 111.408C77.8118 111.083 77.763 110.76 77.6914 110.441C77.6198 110.122 77.5189 109.82 77.3887 109.533C77.265 109.24 77.1022 108.983 76.9004 108.762C76.7051 108.534 76.4674 108.355 76.1875 108.225C75.9076 108.094 75.582 108.029 75.2109 108.029C74.8398 108.029 74.5176 108.098 74.2441 108.234C73.9707 108.365 73.7363 108.544 73.541 108.771C73.3457 108.993 73.1829 109.25 73.0527 109.543C72.929 109.836 72.8314 110.142 72.7598 110.461C72.6882 110.78 72.6361 111.102 72.6035 111.428C72.5775 111.747 72.5645 112.049 72.5645 112.336C72.5645 112.622 72.5775 112.928 72.6035 113.254C72.6361 113.579 72.6882 113.902 72.7598 114.221C72.8314 114.54 72.929 114.846 73.0527 115.139C73.1829 115.432 73.3457 115.692 73.541 115.92C73.7363 116.141 73.9707 116.32 74.2441 116.457C74.5176 116.587 74.8398 116.652 75.2109 116.652C75.5495 116.652 75.849 116.584 76.1094 116.447C76.3763 116.304 76.6074 116.115 76.8027 115.881C77.0046 115.646 77.1738 115.38 77.3105 115.08C77.4473 114.781 77.5579 114.471 77.6426 114.152C77.7272 113.833 77.7891 113.518 77.8281 113.205C77.8672 112.886 77.8867 112.596 77.8867 112.336ZM93.7266 118H89.8496V103.938H96.7637C97.4147 103.938 98.043 104.016 98.6484 104.172C99.2539 104.322 99.7878 104.562 100.25 104.895C100.719 105.22 101.09 105.643 101.363 106.164C101.643 106.685 101.783 107.316 101.783 108.059C101.783 108.638 101.66 109.185 101.412 109.699C101.171 110.207 100.846 110.663 100.436 111.066C100.032 111.464 99.5664 111.796 99.0391 112.062C98.5117 112.323 97.9648 112.495 97.3984 112.58C97.6523 113.01 97.916 113.417 98.1895 113.801C98.4694 114.185 98.7493 114.546 99.0293 114.885C99.3158 115.217 99.599 115.526 99.8789 115.812C100.159 116.092 100.426 116.35 100.68 116.584C101.279 117.131 101.871 117.603 102.457 118H97.623C97.2324 117.629 96.8613 117.183 96.5098 116.662C96.2103 116.219 95.9076 115.673 95.6016 115.021C95.3021 114.364 95.071 113.605 94.9082 112.746H93.7266V118ZM97.8477 108.059C97.8477 107.115 97.6165 106.421 97.1543 105.979C96.6986 105.536 96.0117 105.314 95.0938 105.314H93.7266V111.418H95.0938C95.582 111.418 95.9987 111.327 96.3438 111.145C96.6953 110.956 96.9818 110.708 97.2031 110.402C97.4245 110.09 97.5872 109.732 97.6914 109.328C97.7956 108.924 97.8477 108.501 97.8477 108.059ZM115.572 112.336C115.572 112.922 115.494 113.472 115.338 113.986C115.182 114.501 114.964 114.976 114.684 115.412C114.41 115.848 114.078 116.242 113.688 116.594C113.297 116.939 112.867 117.232 112.398 117.473C111.936 117.714 111.438 117.899 110.904 118.029C110.377 118.16 109.833 118.225 109.273 118.225C108.714 118.225 108.17 118.16 107.643 118.029C107.115 117.899 106.617 117.714 106.148 117.473C105.686 117.232 105.26 116.939 104.869 116.594C104.479 116.242 104.143 115.848 103.863 115.412C103.59 114.976 103.375 114.501 103.219 113.986C103.062 113.465 102.984 112.915 102.984 112.336C102.984 111.757 103.062 111.21 103.219 110.695C103.375 110.174 103.59 109.696 103.863 109.26C104.143 108.824 104.479 108.433 104.869 108.088C105.26 107.736 105.686 107.44 106.148 107.199C106.617 106.958 107.115 106.773 107.643 106.643C108.17 106.512 108.714 106.447 109.273 106.447C109.833 106.447 110.377 106.512 110.904 106.643C111.438 106.773 111.936 106.958 112.398 107.199C112.867 107.44 113.297 107.736 113.688 108.088C114.078 108.433 114.41 108.824 114.684 109.26C114.964 109.696 115.182 110.174 115.338 110.695C115.494 111.21 115.572 111.757 115.572 112.336ZM112.213 112.336C112.213 112.023 112.193 111.695 112.154 111.35C112.122 110.998 112.063 110.656 111.979 110.324C111.894 109.986 111.777 109.663 111.627 109.357C111.484 109.045 111.305 108.775 111.09 108.547C110.875 108.312 110.618 108.127 110.318 107.99C110.019 107.847 109.671 107.775 109.273 107.775C108.896 107.775 108.561 107.847 108.268 107.99C107.975 108.133 107.717 108.326 107.496 108.566C107.281 108.801 107.099 109.074 106.949 109.387C106.806 109.699 106.689 110.025 106.598 110.363C106.507 110.695 106.441 111.034 106.402 111.379C106.363 111.717 106.344 112.036 106.344 112.336C106.344 112.635 106.363 112.958 106.402 113.303C106.441 113.641 106.507 113.98 106.598 114.318C106.689 114.657 106.806 114.982 106.949 115.295C107.099 115.601 107.281 115.874 107.496 116.115C107.717 116.35 107.975 116.538 108.268 116.682C108.561 116.825 108.896 116.896 109.273 116.896C109.664 116.896 110.009 116.828 110.309 116.691C110.608 116.548 110.865 116.359 111.08 116.125C111.301 115.891 111.484 115.62 111.627 115.314C111.77 115.008 111.884 114.686 111.969 114.348C112.06 114.009 112.122 113.667 112.154 113.322C112.193 112.977 112.213 112.648 112.213 112.336ZM129.576 112.336C129.576 112.922 129.498 113.472 129.342 113.986C129.186 114.501 128.967 114.976 128.688 115.412C128.414 115.848 128.082 116.242 127.691 116.594C127.301 116.939 126.871 117.232 126.402 117.473C125.94 117.714 125.442 117.899 124.908 118.029C124.381 118.16 123.837 118.225 123.277 118.225C122.717 118.225 122.174 118.16 121.646 118.029C121.119 117.899 120.621 117.714 120.152 117.473C119.69 117.232 119.264 116.939 118.873 116.594C118.482 116.242 118.147 115.848 117.867 115.412C117.594 114.976 117.379 114.501 117.223 113.986C117.066 113.465 116.988 112.915 116.988 112.336C116.988 111.757 117.066 111.21 117.223 110.695C117.379 110.174 117.594 109.696 117.867 109.26C118.147 108.824 118.482 108.433 118.873 108.088C119.264 107.736 119.69 107.44 120.152 107.199C120.621 106.958 121.119 106.773 121.646 106.643C122.174 106.512 122.717 106.447 123.277 106.447C123.837 106.447 124.381 106.512 124.908 106.643C125.442 106.773 125.94 106.958 126.402 107.199C126.871 107.44 127.301 107.736 127.691 108.088C128.082 108.433 128.414 108.824 128.688 109.26C128.967 109.696 129.186 110.174 129.342 110.695C129.498 111.21 129.576 111.757 129.576 112.336ZM126.217 112.336C126.217 112.023 126.197 111.695 126.158 111.35C126.126 110.998 126.067 110.656 125.982 110.324C125.898 109.986 125.781 109.663 125.631 109.357C125.488 109.045 125.309 108.775 125.094 108.547C124.879 108.312 124.622 108.127 124.322 107.99C124.023 107.847 123.674 107.775 123.277 107.775C122.9 107.775 122.564 107.847 122.271 107.99C121.979 108.133 121.721 108.326 121.5 108.566C121.285 108.801 121.103 109.074 120.953 109.387C120.81 109.699 120.693 110.025 120.602 110.363C120.51 110.695 120.445 111.034 120.406 111.379C120.367 111.717 120.348 112.036 120.348 112.336C120.348 112.635 120.367 112.958 120.406 113.303C120.445 113.641 120.51 113.98 120.602 114.318C120.693 114.657 120.81 114.982 120.953 115.295C121.103 115.601 121.285 115.874 121.5 116.115C121.721 116.35 121.979 116.538 122.271 116.682C122.564 116.825 122.9 116.896 123.277 116.896C123.668 116.896 124.013 116.828 124.312 116.691C124.612 116.548 124.869 116.359 125.084 116.125C125.305 115.891 125.488 115.62 125.631 115.314C125.774 115.008 125.888 114.686 125.973 114.348C126.064 114.009 126.126 113.667 126.158 113.322C126.197 112.977 126.217 112.648 126.217 112.336ZM149.117 111.418C149.117 112.193 149.026 113 148.844 113.84C148.661 114.68 148.404 115.5 148.072 116.301C147.747 117.095 147.353 117.847 146.891 118.557C146.428 119.266 145.914 119.882 145.348 120.402L144.107 119.729C144.296 119.39 144.469 119.009 144.625 118.586C144.781 118.163 144.924 117.717 145.055 117.248C145.185 116.779 145.299 116.298 145.396 115.803C145.494 115.308 145.576 114.816 145.641 114.328C145.712 113.833 145.764 113.355 145.797 112.893C145.829 112.43 145.846 111.997 145.846 111.594C145.846 111.366 145.839 111.118 145.826 110.852C145.813 110.585 145.784 110.318 145.738 110.051C145.699 109.784 145.637 109.53 145.553 109.289C145.468 109.042 145.351 108.824 145.201 108.635C145.058 108.439 144.876 108.286 144.654 108.176C144.439 108.059 144.179 108 143.873 108C143.574 108 143.316 108.081 143.102 108.244C142.893 108.4 142.714 108.605 142.564 108.859C142.415 109.113 142.294 109.4 142.203 109.719C142.118 110.038 142.053 110.36 142.008 110.686C141.962 111.005 141.93 111.311 141.91 111.604C141.897 111.896 141.891 112.144 141.891 112.346V118H138.6V112.746C138.6 112.518 138.603 112.245 138.609 111.926C138.616 111.6 138.606 111.262 138.58 110.91C138.561 110.559 138.518 110.21 138.453 109.865C138.395 109.514 138.297 109.201 138.16 108.928C138.03 108.654 137.851 108.433 137.623 108.264C137.395 108.088 137.109 108 136.764 108C136.471 108 136.223 108.081 136.021 108.244C135.826 108.407 135.66 108.618 135.523 108.879C135.393 109.133 135.289 109.423 135.211 109.748C135.139 110.067 135.084 110.389 135.045 110.715C135.012 111.034 134.993 111.34 134.986 111.633C134.98 111.919 134.977 112.157 134.977 112.346V118H131.666V106.721H132.936L134.146 109.348C134.42 108.436 134.85 107.727 135.436 107.219C136.028 106.704 136.812 106.447 137.789 106.447C138.668 106.447 139.397 106.63 139.977 106.994C140.556 107.359 141.012 107.951 141.344 108.771C141.533 108.413 141.741 108.091 141.969 107.805C142.203 107.518 142.46 107.274 142.74 107.072C143.027 106.87 143.342 106.717 143.688 106.613C144.033 106.503 144.413 106.447 144.83 106.447C145.598 106.447 146.253 106.574 146.793 106.828C147.34 107.076 147.786 107.421 148.131 107.863C148.476 108.306 148.727 108.833 148.883 109.445C149.039 110.051 149.117 110.708 149.117 111.418Z" fill="black"/>
</svg>
