<svg width="169" height="170" viewBox="0 0 169 170" fill="none" xmlns="http://www.w3.org/2000/svg">
<rect width="169" height="170" rx="40" fill="#FA8A95"/>
<g clip-path="url(#clip0_0_434)">
<path d="M91.2407 59.125H90.1251V51.625C90.1251 50.59 89.2851 49.75 88.2501 49.75C87.2151 49.75 86.3751 50.59 86.3751 51.625V59.125H82.6251V51.625C82.6251 50.59 81.7851 49.75 80.7501 49.75C79.7151 49.75 78.8751 50.59 78.8751 51.625V59.125H77.7594C72.8188 59.125 69.5001 62.1381 69.5001 66.625C69.5001 68.4438 70.8144 70.375 73.2501 70.375V76.9375C73.2501 79.5213 75.3538 81.625 77.9376 81.625H91.0626C93.6463 81.625 95.7501 79.5213 95.7501 76.9375V70.375C98.1857 70.375 99.5001 68.4438 99.5001 66.625C99.5001 62.1381 96.1813 59.125 91.2407 59.125ZM77.0001 76.9375V68.5C77.0001 67.465 76.1601 66.625 75.1251 66.625H73.2501C73.2501 63.2406 76.4038 62.875 77.7594 62.875H77.9788C77.3657 63.9513 77.0001 65.2038 77.0001 66.625C77.0001 68.4438 78.3144 70.375 80.7501 70.375V76.9375C80.7501 77.2581 80.7838 77.5713 80.8457 77.875H77.9376C77.4201 77.875 77.0001 77.455 77.0001 76.9375ZM93.8751 66.625C92.8401 66.625 92.0001 67.465 92.0001 68.5V76.9375C92.0001 77.455 91.5801 77.875 91.0626 77.875H85.4376C84.9201 77.875 84.5001 77.455 84.5001 76.9375V68.5C84.5001 67.465 83.6601 66.625 82.6251 66.625H80.7501C80.7501 63.7356 83.0432 63.0513 84.5582 62.9125C85.4113 64.0244 86.7388 64.75 88.2501 64.75C89.7613 64.75 91.0869 64.0225 91.9419 62.9125C93.4588 63.0513 95.7501 63.7356 95.7501 66.625H93.8751ZM107.008 89.125C107.008 90.16 106.168 91 105.133 91C104.098 91 103.258 90.16 103.258 89.125L103.252 53.5H95.7501C94.7151 53.5 93.8751 52.66 93.8751 51.625C93.8751 50.59 94.7151 49.75 95.7501 49.75H103.25V47.875C103.25 46.84 104.09 46 105.125 46C106.16 46 107 46.84 107 47.875L107.008 89.125ZM65.7444 53.5L65.7501 89.125C65.7501 90.16 64.9101 91 63.8751 91C62.8401 91 62.0001 90.16 62.0001 89.125L61.9926 47.875C61.9926 46.84 62.8326 46 63.8676 46C64.9026 46 65.7426 46.84 65.7426 47.875V49.75H73.2501C74.2851 49.75 75.1251 50.59 75.1251 51.625C75.1251 52.66 74.2851 53.5 73.2501 53.5H65.7444Z" fill="black"/>
</g>
<path d="M64.3652 107.424L62.6953 108.127C62.5651 107.704 62.3893 107.316 62.168 106.965C61.9531 106.613 61.6927 106.314 61.3867 106.066C61.0872 105.812 60.7454 105.617 60.3613 105.48C59.9772 105.337 59.5573 105.266 59.1016 105.266C58.6133 105.266 58.1641 105.347 57.7539 105.51C57.3503 105.666 56.9857 105.884 56.6602 106.164C56.3411 106.444 56.0612 106.77 55.8203 107.141C55.5794 107.512 55.3776 107.909 55.2148 108.332C55.0521 108.749 54.9316 109.182 54.8535 109.631C54.7754 110.08 54.7363 110.52 54.7363 110.949C54.7363 111.633 54.8145 112.313 54.9707 112.99C55.1335 113.667 55.3874 114.276 55.7324 114.816C56.084 115.357 56.5365 115.796 57.0898 116.135C57.6432 116.467 58.3138 116.633 59.1016 116.633C59.5182 116.633 59.9121 116.564 60.2832 116.428C60.6543 116.285 60.9896 116.092 61.2891 115.852C61.5951 115.604 61.862 115.314 62.0898 114.982C62.3177 114.65 62.5 114.292 62.6367 113.908L64.3262 114.582C64.0788 115.201 63.7402 115.744 63.3105 116.213C62.8809 116.675 62.3893 117.059 61.8359 117.365C61.2891 117.671 60.6999 117.899 60.0684 118.049C59.4434 118.205 58.8118 118.283 58.1738 118.283C57.4837 118.283 56.8197 118.199 56.1816 118.029C55.5501 117.86 54.9609 117.619 54.4141 117.307C53.8672 116.994 53.3691 116.617 52.9199 116.174C52.4772 115.731 52.0964 115.24 51.7773 114.699C51.4648 114.159 51.2207 113.573 51.0449 112.941C50.8757 112.303 50.791 111.639 50.791 110.949C50.791 110.259 50.8757 109.598 51.0449 108.967C51.2207 108.329 51.4648 107.74 51.7773 107.199C52.0964 106.652 52.4772 106.158 52.9199 105.715C53.3691 105.272 53.8672 104.895 54.4141 104.582C54.9609 104.27 55.5501 104.029 56.1816 103.859C56.8197 103.69 57.4837 103.605 58.1738 103.605C58.8379 103.605 59.4857 103.684 60.1172 103.84C60.7552 103.996 61.3477 104.234 61.8945 104.553C62.4414 104.865 62.9264 105.262 63.3496 105.744C63.7793 106.219 64.1178 106.779 64.3652 107.424ZM69.7168 118H66.416V101.525H67.6855L69.7168 104.953V118ZM84.3848 112.336C84.3848 112.922 84.3066 113.472 84.1504 113.986C83.9941 114.501 83.776 114.976 83.4961 115.412C83.2227 115.848 82.8906 116.242 82.5 116.594C82.1094 116.939 81.6797 117.232 81.2109 117.473C80.7487 117.714 80.2507 117.899 79.7168 118.029C79.1895 118.16 78.6458 118.225 78.0859 118.225C77.526 118.225 76.9824 118.16 76.4551 118.029C75.9277 117.899 75.4297 117.714 74.9609 117.473C74.4987 117.232 74.0723 116.939 73.6816 116.594C73.291 116.242 72.9557 115.848 72.6758 115.412C72.4023 114.976 72.1875 114.501 72.0312 113.986C71.875 113.465 71.7969 112.915 71.7969 112.336C71.7969 111.757 71.875 111.21 72.0312 110.695C72.1875 110.174 72.4023 109.696 72.6758 109.26C72.9557 108.824 73.291 108.433 73.6816 108.088C74.0723 107.736 74.4987 107.44 74.9609 107.199C75.4297 106.958 75.9277 106.773 76.4551 106.643C76.9824 106.512 77.526 106.447 78.0859 106.447C78.6458 106.447 79.1895 106.512 79.7168 106.643C80.2507 106.773 80.7487 106.958 81.2109 107.199C81.6797 107.44 82.1094 107.736 82.5 108.088C82.8906 108.433 83.2227 108.824 83.4961 109.26C83.776 109.696 83.9941 110.174 84.1504 110.695C84.3066 111.21 84.3848 111.757 84.3848 112.336ZM81.0254 112.336C81.0254 112.023 81.0059 111.695 80.9668 111.35C80.9342 110.998 80.8757 110.656 80.791 110.324C80.7064 109.986 80.5892 109.663 80.4395 109.357C80.2962 109.045 80.1172 108.775 79.9023 108.547C79.6875 108.312 79.4303 108.127 79.1309 107.99C78.8314 107.847 78.4831 107.775 78.0859 107.775C77.7083 107.775 77.373 107.847 77.0801 107.99C76.7871 108.133 76.5299 108.326 76.3086 108.566C76.0938 108.801 75.9115 109.074 75.7617 109.387C75.6185 109.699 75.5013 110.025 75.4102 110.363C75.319 110.695 75.2539 111.034 75.2148 111.379C75.1758 111.717 75.1562 112.036 75.1562 112.336C75.1562 112.635 75.1758 112.958 75.2148 113.303C75.2539 113.641 75.319 113.98 75.4102 114.318C75.5013 114.657 75.6185 114.982 75.7617 115.295C75.9115 115.601 76.0938 115.874 76.3086 116.115C76.5299 116.35 76.7871 116.538 77.0801 116.682C77.373 116.825 77.7083 116.896 78.0859 116.896C78.4766 116.896 78.8216 116.828 79.1211 116.691C79.4206 116.548 79.6777 116.359 79.8926 116.125C80.1139 115.891 80.2962 115.62 80.4395 115.314C80.5827 115.008 80.6966 114.686 80.7812 114.348C80.8724 114.009 80.9342 113.667 80.9668 113.322C81.0059 112.977 81.0254 112.648 81.0254 112.336ZM96.1816 114.396C96.1816 114.891 96.11 115.331 95.9668 115.715C95.8236 116.099 95.6283 116.434 95.3809 116.721C95.1335 117.001 94.8405 117.238 94.502 117.434C94.1634 117.622 93.7988 117.775 93.4082 117.893C93.0241 118.01 92.6204 118.094 92.1973 118.146C91.7741 118.199 91.3542 118.225 90.9375 118.225C90.3776 118.225 89.8828 118.189 89.4531 118.117C89.0234 118.046 88.6133 117.932 88.2227 117.775C87.832 117.613 87.4414 117.404 87.0508 117.15C86.6667 116.896 86.237 116.587 85.7617 116.223L87.6855 114.65C87.8613 114.982 88.0924 115.285 88.3789 115.559C88.6719 115.826 88.9746 116.057 89.2871 116.252C89.5996 116.447 89.9023 116.597 90.1953 116.701C90.4883 116.805 90.7259 116.857 90.9082 116.857C91.0579 116.857 91.2272 116.854 91.416 116.848C91.6048 116.835 91.7969 116.815 91.9922 116.789C92.1875 116.757 92.3796 116.711 92.5684 116.652C92.7572 116.594 92.9232 116.516 93.0664 116.418C93.2161 116.314 93.3333 116.187 93.418 116.037C93.5091 115.881 93.5547 115.695 93.5547 115.48C93.5547 115.259 93.4961 115.067 93.3789 114.904C93.2682 114.735 93.1217 114.589 92.9395 114.465C92.7572 114.341 92.5488 114.237 92.3145 114.152C92.0801 114.068 91.8424 113.993 91.6016 113.928C91.3672 113.863 91.1393 113.807 90.918 113.762C90.6966 113.71 90.5046 113.661 90.3418 113.615C90.0423 113.531 89.7266 113.446 89.3945 113.361C89.0625 113.27 88.7337 113.169 88.4082 113.059C88.0827 112.941 87.7702 112.805 87.4707 112.648C87.1777 112.492 86.9173 112.307 86.6895 112.092C86.4681 111.87 86.2891 111.613 86.1523 111.32C86.0221 111.021 85.957 110.673 85.957 110.275C85.957 109.546 86.1003 108.938 86.3867 108.449C86.6797 107.954 87.0638 107.561 87.5391 107.268C88.0143 106.968 88.5547 106.757 89.1602 106.633C89.7656 106.509 90.3809 106.447 91.0059 106.447C91.4355 106.447 91.888 106.493 92.3633 106.584C92.8385 106.669 93.3008 106.799 93.75 106.975C94.1992 107.144 94.6191 107.352 95.0098 107.6C95.4004 107.847 95.7259 108.13 95.9863 108.449L94.0625 110.031C93.9193 109.641 93.7305 109.305 93.4961 109.025C93.2682 108.745 93.0176 108.518 92.7441 108.342C92.4772 108.16 92.2005 108.026 91.9141 107.941C91.6341 107.857 91.3737 107.814 91.1328 107.814C90.8984 107.814 90.6348 107.824 90.3418 107.844C90.0488 107.863 89.7721 107.919 89.5117 108.01C89.2578 108.101 89.0397 108.241 88.8574 108.43C88.6816 108.612 88.5938 108.866 88.5938 109.191C88.5938 109.426 88.6458 109.628 88.75 109.797C88.8607 109.96 89.0039 110.103 89.1797 110.227C89.3555 110.344 89.554 110.445 89.7754 110.529C90.0033 110.607 90.2344 110.679 90.4688 110.744C90.7031 110.803 90.931 110.855 91.1523 110.9C91.3737 110.946 91.5723 110.995 91.748 111.047C92.0475 111.132 92.3633 111.219 92.6953 111.311C93.0339 111.395 93.3659 111.496 93.6914 111.613C94.0169 111.724 94.3294 111.857 94.6289 112.014C94.9349 112.163 95.2018 112.349 95.4297 112.57C95.6576 112.792 95.8398 113.052 95.9766 113.352C96.1133 113.645 96.1816 113.993 96.1816 114.396ZM100.986 112.648C101.39 112.74 101.794 112.811 102.197 112.863C102.601 112.915 103.008 112.941 103.418 112.941C103.848 112.941 104.245 112.902 104.609 112.824C104.98 112.74 105.299 112.603 105.566 112.414C105.84 112.219 106.055 111.962 106.211 111.643C106.367 111.324 106.445 110.926 106.445 110.451C106.445 110.067 106.393 109.715 106.289 109.396C106.185 109.077 106.029 108.804 105.82 108.576C105.618 108.348 105.368 108.173 105.068 108.049C104.769 107.919 104.421 107.854 104.023 107.854C103.652 107.854 103.317 107.922 103.018 108.059C102.725 108.195 102.464 108.381 102.236 108.615C102.015 108.843 101.823 109.11 101.66 109.416C101.504 109.722 101.374 110.041 101.27 110.373C101.165 110.705 101.09 111.04 101.045 111.379C100.999 111.717 100.977 112.036 100.977 112.336C100.977 112.388 100.977 112.44 100.977 112.492C100.977 112.544 100.98 112.596 100.986 112.648ZM109.121 110.422C109.121 110.884 109.046 111.298 108.896 111.662C108.747 112.02 108.542 112.336 108.281 112.609C108.027 112.883 107.731 113.114 107.393 113.303C107.054 113.492 106.693 113.648 106.309 113.771C105.924 113.889 105.527 113.973 105.117 114.025C104.714 114.077 104.32 114.104 103.936 114.104C103.447 114.104 102.965 114.071 102.49 114.006C102.015 113.934 101.546 113.824 101.084 113.674C101.156 114.104 101.27 114.514 101.426 114.904C101.582 115.288 101.79 115.627 102.051 115.92C102.311 116.206 102.63 116.434 103.008 116.604C103.392 116.773 103.844 116.857 104.365 116.857C104.71 116.857 105.039 116.805 105.352 116.701C105.664 116.597 105.951 116.451 106.211 116.262C106.471 116.073 106.699 115.848 106.895 115.588C107.096 115.327 107.259 115.038 107.383 114.719L108.809 115.246C108.594 115.76 108.298 116.206 107.92 116.584C107.549 116.955 107.126 117.264 106.65 117.512C106.182 117.753 105.68 117.932 105.146 118.049C104.619 118.166 104.095 118.225 103.574 118.225C102.715 118.225 101.921 118.081 101.191 117.795C100.462 117.502 99.834 117.095 99.3066 116.574C98.7793 116.053 98.3659 115.432 98.0664 114.709C97.7669 113.986 97.6172 113.195 97.6172 112.336C97.6172 111.477 97.7669 110.686 98.0664 109.963C98.3659 109.24 98.7793 108.618 99.3066 108.098C99.834 107.577 100.462 107.173 101.191 106.887C101.921 106.594 102.715 106.447 103.574 106.447C103.991 106.447 104.417 106.477 104.854 106.535C105.29 106.594 105.713 106.688 106.123 106.818C106.533 106.942 106.921 107.105 107.285 107.307C107.65 107.508 107.965 107.759 108.232 108.059C108.506 108.352 108.721 108.693 108.877 109.084C109.04 109.475 109.121 109.921 109.121 110.422ZM115.43 118H112.119V108.029H110.068V106.721H112.119V102.57H115.43V106.721H118.848V108.029H115.43V118Z" fill="black"/>
<defs>
<clipPath id="clip0_0_434">
<rect width="45" height="45" fill="white" transform="translate(62 46)"/>
</clipPath>
</defs>
</svg>
